<svg xmlns="http://www.w3.org/2000/svg" viewBox="0 0 1920 1200" width="1920" height="1200" fill="none"><defs><radialGradient id="c1"><stop offset="0" stop-color="#2f6bff" stop-opacity="0.22"/><stop offset="1" stop-color="#2f6bff" stop-opacity="0"/></radialGradient><radialGradient id="c2"><stop offset="0" stop-color="#6a3df5" stop-opacity="0.14"/><stop offset="1" stop-color="#6a3df5" stop-opacity="0"/></radialGradient><radialGradient id="c3"><stop offset="0" stop-color="#38b6ff" stop-opacity="0.14"/><stop offset="1" stop-color="#38b6ff" stop-opacity="0"/></radialGradient><radialGradient id="c4"><stop offset="0" stop-color="#38b6ff" stop-opacity="0.1"/><stop offset="1" stop-color="#38b6ff" stop-opacity="0"/></radialGradient></defs><circle cx="520" cy="380" r="620" fill="url(#c1)"/><circle cx="1150" cy="720" r="520" fill="url(#c2)"/><circle cx="300" cy="1000" r="420" fill="url(#c3)"/><circle cx="1500" cy="260" r="380" fill="url(#c4)"/><rect x="1596" y="733" width="67" height="67" rx="8" stroke="#7fc8ff" stroke-opacity="0.27" stroke-width="1.5"/><rect x="679" y="821" width="58" height="58" rx="8" stroke="#7fc8ff" stroke-opacity="0.18" stroke-width="1.5"/><rect x="1340" y="733" width="64" height="64" rx="8" stroke="#7fc8ff" stroke-opacity="0.25" stroke-width="1.5"/><rect x="973" y="762" width="44" height="44" rx="8" stroke="#7fc8ff" stroke-opacity="0.24" stroke-width="1.5"/><rect x="1815" y="902" width="53" height="53" rx="8" stroke="#7fc8ff" stroke-opacity="0.19" stroke-width="1.5"/><rect x="366" y="900" width="82" height="82" rx="8" stroke="#7fc8ff" stroke-opacity="0.31" stroke-width="1.5"/><rect x="677" y="908" width="74" height="74" rx="8" stroke="#7fc8ff" stroke-opacity="0.16" stroke-width="1.5"/><rect x="1045" y="1035" width="67" height="67" rx="8" stroke="#7fc8ff" stroke-opacity="0.19" stroke-width="1.5"/><rect x="1376" y="750" width="26" height="26" rx="8" stroke="#7fc8ff" stroke-opacity="0.12" stroke-width="1.5"/><rect x="138" y="764" width="82" height="82" rx="8" stroke="#7fc8ff" stroke-opacity="0.22" stroke-width="1.5"/><rect x="1737" y="642" width="70" height="70" rx="8" stroke="#7fc8ff" stroke-opacity="0.26" stroke-width="1.5"/><rect x="1507" y="1028" width="68" height="68" rx="8" stroke="#7fc8ff" stroke-opacity="0.31" stroke-width="1.5"/><rect x="802" y="853" width="34" height="34" rx="8" stroke="#7fc8ff" stroke-opacity="0.30" stroke-width="1.5"/><rect x="1798" y="797" width="54" height="54" rx="8" stroke="#7fc8ff" stroke-opacity="0.24" stroke-width="1.5"/><rect x="1048" y="996" width="45" height="45" rx="8" stroke="#7fc8ff" stroke-opacity="0.14" stroke-width="1.5"/><rect x="1790" y="887" width="41" height="41" rx="8" stroke="#7fc8ff" stroke-opacity="0.20" stroke-width="1.5"/><rect x="709" y="704" width="37" height="37" rx="8" stroke="#7fc8ff" stroke-opacity="0.22" stroke-width="1.5"/><rect x="808" y="1009" width="38" height="38" rx="8" stroke="#7fc8ff" stroke-opacity="0.17" stroke-width="1.5"/><rect x="838" y="721" width="66" height="66" rx="8" stroke="#7fc8ff" stroke-opacity="0.17" stroke-width="1.5"/><rect x="593" y="1069" width="56" height="56" rx="8" stroke="#7fc8ff" stroke-opacity="0.11" stroke-width="1.5"/><rect x="704" y="1056" width="48" height="48" rx="8" stroke="#7fc8ff" stroke-opacity="0.15" stroke-width="1.5"/><rect x="1029" y="974" width="69" height="69" rx="8" stroke="#7fc8ff" stroke-opacity="0.21" stroke-width="1.5"/><rect x="899" y="997" width="55" height="55" rx="8" stroke="#7fc8ff" stroke-opacity="0.15" stroke-width="1.5"/><rect x="61" y="849" width="48" height="48" rx="8" stroke="#7fc8ff" stroke-opacity="0.16" stroke-width="1.5"/><rect x="1809" y="982" width="40" height="40" rx="8" stroke="#7fc8ff" stroke-opacity="0.16" stroke-width="1.5"/><rect x="1298" y="728" width="28" height="28" rx="8" stroke="#7fc8ff" stroke-opacity="0.21" stroke-width="1.5"/><rect x="430" y="760" width="42" height="42" rx="8" fill="#38b6ff" fill-opacity="0.30"/><rect x="980" y="880" width="34" height="34" rx="8" fill="#6a3df5" fill-opacity="0.30"/><rect x="1450" y="700" width="48" height="48" rx="8" fill="#2f6bff" fill-opacity="0.30"/></svg>