<?xml version="1.0" encoding="UTF-8"?><svg id="Lager_1" xmlns="http://www.w3.org/2000/svg" width="300" height="76" viewBox="0 0 300 76"><defs><style>.cls-1{fill:#060300;}</style></defs><path class="cls-1" d="M94.98,47.28h-18.92c.03-1.1.49-2.16,1.37-3.2.88-1.03,2.17-1.98,3.88-2.84l4.26-2.18c2.13-1.1,3.87-2.22,5.21-3.36,1.34-1.14,2.35-2.41,3.03-3.82.68-1.4,1.01-3.01,1.01-4.82,0-1.94-.52-3.75-1.55-5.41-1.03-1.66-2.52-3.01-4.46-4.02-1.94-1.01-4.24-1.52-6.87-1.52-2.49,0-4.63.41-6.43,1.23-1.8.82-3.26,1.99-4.37,3.51-.79,1.01-1.39,2.18-1.8,3.49-.41,1.31-.63,2.53-.66,3.66,0,.14.09.2.28.2h5.45c.07,0,.11-.01.14-.04s.05-.08.06-.16c0-.05,0-.08.03-.1.08-.66.22-1.31.41-1.94.19-.63.51-1.28.96-1.94.57-.83,1.36-1.47,2.36-1.93,1-.46,2.19-.68,3.58-.68s2.66.27,3.73.81c1.07.54,1.88,1.25,2.43,2.13.56.88.84,1.8.84,2.76,0,1.12-.22,2.08-.67,2.9-.45.82-1.14,1.58-2.07,2.28-.93.7-2.23,1.48-3.91,2.35l-4.41,2.28c-2.3,1.18-4.11,2.54-5.44,4.08-1.33,1.54-2.26,3.23-2.79,5.08s-.8,3.94-.8,6.28c0,.1.03.18.09.23.06.05.13.08.22.08h25.82c.05,0,.1-.02.14-.06.04-.04.06-.09.06-.14v-5c0-.05-.02-.1-.06-.14-.04-.04-.09-.06-.14-.06Z"/><path class="cls-1" d="M105.5,32.5c1.11-.68,2.4-1.01,3.87-1.01,1.69,0,3.07.4,4.15,1.19,1.07.79,1.88,1.94,2.42,3.45.05.14.1.22.14.25.04.03.11.05.19.05h5.27c.17,0,.25-.08.25-.25,0-.25-.1-.71-.3-1.37-.2-.66-.49-1.38-.87-2.17-.38-.79-.83-1.49-1.36-2.12-1.17-1.42-2.59-2.51-4.27-3.26-1.68-.75-3.55-1.13-5.62-1.13-2.5,0-4.74.58-6.71,1.74-1.97,1.16-3.51,2.78-4.62,4.86-1.11,2.08-1.66,4.46-1.66,7.13s.55,5.01,1.65,7.08c1.1,2.06,2.63,3.67,4.6,4.82,1.97,1.15,4.21,1.72,6.73,1.72,1.91,0,3.65-.31,5.22-.94,1.57-.63,2.93-1.53,4.08-2.71.73-.76,1.33-1.6,1.8-2.51.47-.91.81-1.74,1.01-2.47s.3-1.26.3-1.56c0-.14-.07-.2-.2-.2h-5.3c-.05,0-.1.02-.14.05-.04.03-.08.1-.11.2-.52,1.54-1.34,2.72-2.46,3.55-1.12.83-2.52,1.24-4.21,1.24-1.45,0-2.74-.34-3.84-1.01-1.11-.68-1.97-1.64-2.59-2.89-.62-1.25-.93-2.7-.93-4.36s.3-3.17.91-4.44c.61-1.27,1.47-2.24,2.57-2.92Z"/><path class="cls-1" d="M142.22,28.06c-1.45-.79-3.12-1.19-5.01-1.19-1.5,0-2.78.25-3.83.76-1.05.51-1.95,1.29-2.71,2.36-.1.14-.23.21-.38.23-.15.02-.28-.01-.39-.09-.11-.08-.16-.19-.16-.34v-12.73c0-.05-.02-.1-.06-.14-.04-.04-.09-.06-.14-.06h-5.25c-.05,0-.1.02-.14.06-.04.04-.06.09-.06.14v35.43c0,.05.02.1.06.14.04.04.09.06.14.06h5.25c.05,0,.1-.02.14-.06.04-.04.06-.09.06-.14v-14.61c0-1.13.24-2.14.74-3.02.49-.88,1.18-1.56,2.07-2.05.89-.49,1.91-.74,3.06-.74s2.09.23,2.93.68c.84.46,1.49,1.11,1.95,1.95.46.85.7,1.85.7,3.02v14.76c0,.05.02.1.06.14.04.04.09.06.14.06h5.2c.05,0,.1-.02.14-.06.04-.04.06-.09.06-.14v-16.05c0-1.89-.4-3.56-1.19-5.01-.79-1.45-1.91-2.57-3.36-3.36Z"/><path class="cls-1" d="M156.44,51.74c1.98,1.15,4.24,1.72,6.77,1.72,1.54,0,2.97-.21,4.3-.62,1.33-.41,2.52-1.03,3.59-1.84.88-.63,1.64-1.37,2.27-2.23.63-.86,1.12-1.68,1.45-2.45.33-.77.49-1.3.49-1.58,0-.15-.07-.23-.2-.23h-5.3c-.1,0-.18.01-.23.04s-.1.09-.15.19c-.57,1.13-1.36,2-2.36,2.61-1,.61-2.28.91-3.85.91-1.3,0-2.48-.27-3.52-.82-1.05-.55-1.9-1.34-2.56-2.38s-1.07-2.27-1.24-3.69h19.55c.15,0,.26-.03.32-.1.06-.07.1-.19.11-.38.15-2.59-.22-5-1.13-7.25-.9-2.25-2.35-4.06-4.32-5.44-1.98-1.38-4.42-2.07-7.33-2.07-2.62,0-4.91.61-6.86,1.84-1.95,1.23-3.45,2.88-4.5,4.97-1.05,2.09-1.57,4.41-1.57,6.96s.55,4.96,1.66,7.02c1.11,2.06,2.65,3.67,4.63,4.82ZM157.51,33.84c.65-.81,1.44-1.43,2.36-1.86.92-.43,1.96-.65,3.11-.65,1.86,0,3.41.45,4.64,1.36,1.23.9,2.08,2.25,2.54,4.04h-14.07c.3-1.12.78-2.08,1.43-2.89Z"/><path class="cls-1" d="M187.11,32.5c1.11-.68,2.4-1.01,3.87-1.01,1.69,0,3.07.4,4.15,1.19,1.07.79,1.88,1.94,2.42,3.45.05.14.1.22.14.25.04.03.11.05.19.05h5.27c.17,0,.25-.08.25-.25,0-.25-.1-.71-.3-1.37-.2-.66-.49-1.38-.88-2.17-.38-.79-.83-1.49-1.36-2.12-1.17-1.42-2.59-2.51-4.27-3.26-1.68-.75-3.55-1.13-5.62-1.13-2.5,0-4.74.58-6.71,1.74-1.97,1.16-3.51,2.78-4.62,4.86-1.11,2.08-1.66,4.46-1.66,7.13s.55,5.01,1.65,7.08c1.1,2.06,2.63,3.67,4.6,4.82,1.97,1.15,4.21,1.72,6.73,1.72,1.91,0,3.65-.31,5.22-.94,1.57-.63,2.93-1.53,4.08-2.71.73-.76,1.33-1.6,1.8-2.51.47-.91.81-1.74,1.01-2.47.2-.74.3-1.26.3-1.56,0-.14-.07-.2-.2-.2h-5.3c-.05,0-.1.02-.14.05-.04.03-.08.1-.11.2-.52,1.54-1.34,2.72-2.46,3.55-1.12.83-2.52,1.24-4.21,1.24-1.45,0-2.73-.34-3.84-1.01-1.11-.68-1.97-1.64-2.59-2.89-.62-1.25-.93-2.7-.93-4.36s.3-3.17.91-4.44c.61-1.27,1.47-2.24,2.57-2.92Z"/><path class="cls-1" d="M222.98,52.68h6.95c.08,0,.14-.03.16-.09s0-.11-.06-.16l-11.41-13.67,10.42-11.54c.08-.1.12-.18.11-.23,0-.05-.06-.08-.17-.08h-6.69c-.14,0-.27.07-.41.2l-8.47,9.61c-.19.19-.41.25-.66.18-.25-.07-.38-.23-.38-.48v-19.37c0-.05-.02-.1-.06-.14-.04-.04-.09-.06-.14-.06h-5.25c-.05,0-.1.02-.14.06-.04.04-.06.09-.06.14v35.43c0,.05.02.1.06.14.04.04.09.06.14.06h5.25c.05,0,.1-.02.14-.06.04-.04.06-.09.06-.14v-10.96c0-.17.06-.3.19-.39.13-.09.27-.13.43-.11.16.02.3.09.42.23l9.18,11.23c.12.14.25.2.38.2Z"/><path class="cls-1" d="M229.97,46.93c1.14,2.06,2.72,3.67,4.73,4.82,2.01,1.15,4.29,1.72,6.82,1.72s4.86-.58,6.89-1.72c2.02-1.15,3.6-2.76,4.74-4.82,1.14-2.06,1.71-4.42,1.71-7.08s-.57-5.05-1.71-7.13c-1.14-2.08-2.72-3.7-4.74-4.86-2.02-1.16-4.32-1.74-6.89-1.74s-4.81.58-6.82,1.74c-2.01,1.16-3.59,2.78-4.73,4.86-1.14,2.08-1.71,4.46-1.71,7.13s.57,5.01,1.71,7.08ZM234.87,35.43c.65-1.26,1.55-2.23,2.7-2.92,1.15-.68,2.47-1.03,3.96-1.03s2.87.34,4.03,1.01c1.17.68,2.08,1.64,2.73,2.9.65,1.26.98,2.74.98,4.45s-.33,3.13-.99,4.37c-.66,1.24-1.57,2.2-2.74,2.88-1.17.68-2.5,1.01-4.01,1.01s-2.79-.34-3.94-1.01c-1.16-.68-2.06-1.64-2.71-2.89-.65-1.25-.98-2.7-.98-4.36s.33-3.17.98-4.43Z"/><path class="cls-1" d="M263.15,52.06c1.48.8,3.18,1.2,5.11,1.2,1.59,0,2.94-.28,4.04-.84,1.11-.56,2.04-1.34,2.8-2.33.14-.15.28-.24.43-.27.15-.03.28,0,.39.1.11.09.16.22.16.37v2.18c0,.05.02.1.06.14.04.04.09.06.14.06h4.89c.05,0,.1-.02.14-.06s.06-.09.06-.14v-25.36c0-.05-.02-.1-.06-.14-.04-.04-.09-.06-.14-.06h-5.25c-.05,0-.1.02-.14.06-.04.04-.06.09-.06.14v14.86c0,1.17-.26,2.2-.77,3.11-.52.9-1.23,1.61-2.13,2.12-.9.51-1.93.76-3.08.76s-2.08-.23-2.93-.7c-.85-.47-1.51-1.14-1.98-2.02-.47-.88-.7-1.92-.7-3.12v-15.01c0-.05-.02-.1-.06-.14-.04-.04-.09-.06-.14-.06h-5.25c-.05,0-.1.02-.14.06-.04.04-.06.09-.06.14v16.38c0,1.94.41,3.66,1.22,5.14.81,1.48,1.96,2.62,3.44,3.42Z"/><path class="cls-1" d="M299.94,47.45s-.09-.06-.14-.06h-3.7c-.91,0-1.56-.15-1.93-.46s-.56-.88-.56-1.72v-12.98h5.66c.05,0,.1-.02.14-.06.04-.04.06-.09.06-.14v-4.89c0-.05-.02-.1-.06-.14-.04-.04-.09-.06-.14-.06h-5.66v-7.43c0-.05-.02-.1-.06-.14-.04-.04-.09-.06-.14-.06h-5.2c-.05,0-.1.02-.14.06s-.06.09-.06.14v7.43h-4.16c-.05,0-.1.02-.14.06-.04.04-.06.09-.06.14v4.89c0,.05.02.1.06.14.04.04.09.06.14.06h4.16v14.07c0,1.69.27,3,.81,3.93.54.93,1.34,1.57,2.38,1.93,1.05.36,2.44.53,4.18.53h4.41c.05,0,.1-.02.14-.06s.06-.09.06-.14v-4.89c0-.05-.02-.1-.06-.14Z"/><path class="cls-1" d="M154.86,64.36c-.63-.37-1.35-.56-2.15-.56-.55,0-1.08.1-1.58.3-.5.2-.88.48-1.15.85-.04.05-.08.08-.13.08s-.09,0-.12-.03c-.03-.03-.05-.06-.05-.11v-.82s0-.03-.02-.05c-.01-.01-.03-.02-.05-.02h-1.16s-.03,0-.05.02-.02.03-.02.05v11.51s0,.04.02.05.03.02.05.02h1.23s.03,0,.05-.02.02-.03.02-.05v-3.92c0-.07.03-.12.11-.13s.13,0,.19.07c.28.39.66.68,1.13.88.47.2.98.3,1.54.3.8,0,1.52-.19,2.14-.56s1.11-.9,1.47-1.58c.35-.68.53-1.47.53-2.36s-.17-1.68-.52-2.36c-.35-.68-.84-1.21-1.46-1.58ZM155.11,70c-.24.49-.59.86-1.03,1.11s-.95.39-1.52.39-1.06-.13-1.5-.39c-.44-.26-.78-.63-1.03-1.11s-.37-1.05-.37-1.7.12-1.21.37-1.69.59-.86,1.03-1.12c.44-.26.94-.39,1.5-.39s1.08.13,1.52.39c.44.26.78.63,1.03,1.11.24.48.37,1.05.37,1.7s-.12,1.22-.37,1.7Z"/><path class="cls-1" d="M164.34,64.35c-.65-.37-1.38-.56-2.19-.56s-1.54.19-2.19.56c-.65.37-1.16.9-1.53,1.58-.37.68-.56,1.47-.56,2.37s.18,1.69.55,2.37.87,1.21,1.52,1.59c.65.37,1.38.56,2.2.56s1.54-.19,2.19-.56c.65-.37,1.16-.9,1.52-1.59s.55-1.47.55-2.37-.18-1.69-.55-2.37c-.37-.68-.87-1.21-1.52-1.58ZM164.69,70.02c-.25.49-.6.86-1.04,1.12-.44.26-.94.39-1.5.39s-1.05-.13-1.5-.4c-.44-.26-.79-.64-1.04-1.12-.25-.48-.38-1.05-.38-1.7s.12-1.21.37-1.7c.25-.49.6-.86,1.04-1.13.44-.26.94-.4,1.51-.4s1.06.13,1.5.39c.44.26.78.63,1.03,1.11.25.48.37,1.06.37,1.72s-.12,1.23-.37,1.72Z"/><path class="cls-1" d="M179.54,64.03h-1.3c-.06,0-.1.02-.11.05l-1.67,7.05c-.02.07-.05.12-.1.15-.05.03-.1.03-.16,0-.05-.03-.09-.08-.11-.15l-1.69-7.05s-.02-.04-.03-.04c-.02,0-.03,0-.05,0h-1.97s-.07.02-.08.05l-1.66,7.05c-.02.07-.05.12-.1.15s-.1.03-.16,0-.09-.08-.11-.15l-1.72-7.03s-.05-.07-.09-.07h-1.34s-.04,0-.05.02-.01.03,0,.05l2.22,8.41s.02.05.03.05c.01,0,.03.01.05.01h2.09s.04,0,.05-.01.02-.03.03-.05l1.62-6.8c.02-.07.05-.12.1-.15.05-.03.1-.03.14,0,.05.03.08.08.1.15l1.66,6.8s.02.05.03.05.04.01.07.01h2.07s.04,0,.05-.01.02-.03.03-.05l2.21-8.41s-.01-.07-.08-.07Z"/><path class="cls-1" d="M186.48,64.45c-.63-.44-1.42-.66-2.36-.66-.84,0-1.57.2-2.19.6s-1.1.94-1.44,1.63c-.33.69-.5,1.46-.5,2.3,0,.89.18,1.68.53,2.36.35.68.85,1.21,1.48,1.58.64.37,1.36.56,2.18.56.57,0,1.07-.08,1.52-.24.45-.16.85-.4,1.2-.71.25-.22.46-.47.63-.74.17-.27.3-.53.39-.75.09-.23.13-.38.13-.45,0-.05-.02-.08-.07-.08h-1.25s-.05,0-.07.01c-.02,0-.03.03-.04.06-.19.5-.49.9-.89,1.19-.4.29-.92.43-1.56.43-.55,0-1.03-.12-1.45-.37s-.74-.59-.98-1.04-.38-.97-.41-1.57h6.73s.07-.01.09-.03.04-.06.04-.13c.05-.79-.07-1.53-.35-2.23-.28-.7-.74-1.28-1.37-1.72ZM181.44,67.33c.1-.45.27-.85.51-1.19.24-.34.54-.61.91-.79.36-.19.77-.28,1.23-.28.74,0,1.34.19,1.8.58.46.39.76.95.9,1.69h-5.36Z"/><path class="cls-1" d="M193.95,64.03h-.67c-.35,0-.7.09-1.06.26-.36.17-.66.42-.9.74-.04.05-.08.08-.13.08s-.08,0-.11-.03c-.03-.03-.04-.06-.04-.11v-.88s0-.03-.02-.05-.03-.02-.05-.02h-1.16s-.03,0-.05.02-.02.03-.02.05v8.41s0,.03.02.05.03.02.05.02h1.23s.03,0,.05-.02.02-.03.02-.05v-4.96c0-.42.1-.79.29-1.13.19-.34.45-.61.78-.8.33-.19.69-.29,1.08-.29h.69s.03,0,.05-.02c.01-.01.02-.03.02-.05v-1.16s0-.03-.02-.05c-.01-.01-.03-.02-.05-.02Z"/><path class="cls-1" d="M200.92,64.45c-.63-.44-1.42-.66-2.36-.66-.84,0-1.57.2-2.19.6s-1.1.94-1.44,1.63c-.33.69-.5,1.46-.5,2.3,0,.89.18,1.68.53,2.36.35.68.85,1.21,1.48,1.58.64.37,1.36.56,2.18.56.57,0,1.07-.08,1.52-.24.45-.16.85-.4,1.2-.71.25-.22.46-.47.63-.74.17-.27.3-.53.39-.75.09-.23.13-.38.13-.45,0-.05-.02-.08-.07-.08h-1.25s-.05,0-.07.01c-.02,0-.03.03-.04.06-.19.5-.49.9-.89,1.19-.4.29-.92.43-1.56.43-.55,0-1.03-.12-1.45-.37s-.74-.59-.98-1.04-.38-.97-.41-1.57h6.73s.07-.01.09-.03.04-.06.04-.13c.05-.79-.07-1.53-.35-2.23-.28-.7-.74-1.28-1.37-1.72ZM195.88,67.33c.1-.45.27-.85.51-1.19.24-.34.54-.61.91-.79.36-.19.77-.28,1.23-.28.74,0,1.34.19,1.8.58.46.39.76.95.9,1.69h-5.36Z"/><path class="cls-1" d="M212.05,60.69h-1.23s-.03,0-.05.02c-.01.01-.02.03-.02.05v4.17c0,.07-.03.11-.1.12-.07.01-.13-.01-.19-.07-.28-.38-.66-.67-1.13-.87s-.98-.3-1.54-.3c-.8,0-1.52.19-2.14.56-.63.37-1.11.9-1.47,1.58s-.53,1.46-.53,2.35.17,1.69.52,2.36.84,1.2,1.46,1.58c.63.37,1.35.56,2.15.56.56,0,1.08-.1,1.58-.3.5-.2.88-.49,1.15-.86.04-.05.08-.08.13-.08.05,0,.09,0,.12.03.03.03.05.06.05.11v.81s0,.03.02.05.03.02.05.02h1.16s.03,0,.05-.02.02-.03.02-.05v-11.75s0-.03-.02-.05-.03-.02-.05-.02ZM210.46,70c-.25.48-.59.85-1.03,1.11-.44.26-.94.39-1.5.39s-1.08-.13-1.52-.39c-.44-.26-.78-.63-1.03-1.11-.24-.48-.37-1.05-.37-1.7s.12-1.22.37-1.7c.24-.48.59-.85,1.03-1.11.44-.26.95-.39,1.52-.39s1.06.13,1.5.39c.44.26.78.63,1.03,1.12.25.48.37,1.05.37,1.69s-.12,1.22-.37,1.7Z"/><path class="cls-1" d="M225.42,64.37c-.63-.37-1.34-.56-2.14-.56-.56,0-1.07.1-1.54.3-.47.2-.85.49-1.13.87-.06.06-.12.08-.19.07-.07-.01-.11-.05-.11-.12v-4.17s0-.03-.02-.05-.03-.02-.05-.02h-1.23s-.03,0-.05.02-.02.03-.02.05v11.75s0,.03.02.05.03.02.05.02h1.16s.03,0,.05-.02.02-.03.02-.05v-.81s.02-.08.05-.11c.03-.03.07-.04.12-.03s.09.03.13.08c.27.38.65.66,1.15.86.5.2,1.03.3,1.58.3.81,0,1.53-.19,2.15-.56s1.12-.9,1.46-1.58c.35-.68.52-1.47.52-2.36s-.18-1.68-.53-2.35-.84-1.2-1.47-1.58ZM225.69,70c-.24.49-.59.86-1.03,1.11s-.95.39-1.52.39-1.06-.13-1.5-.39-.78-.63-1.03-1.11-.37-1.05-.37-1.7.12-1.21.37-1.69.59-.86,1.03-1.12c.44-.26.94-.39,1.5-.39s1.08.13,1.52.39c.44.26.78.63,1.03,1.11s.37,1.05.37,1.7-.12,1.22-.37,1.7Z"/><path class="cls-1" d="M234.75,64.03s-.04,0-.05,0-.02.02-.03.04l-2.27,6.34c-.03.1-.09.14-.17.14s-.14-.05-.17-.14l-2.43-6.34s-.02-.04-.03-.04c-.02,0-.03,0-.05,0h-1.38c-.05,0-.07.03-.05.08l3.36,8.41-.38,1c-.08.24-.17.41-.26.53-.1.12-.22.2-.36.25-.15.05-.34.07-.58.07h-.97s-.03,0-.05.02-.02.03-.02.05v1.15s0,.04.02.05.03.02.05.02h1.14c.48,0,.86-.06,1.14-.17.29-.12.53-.31.72-.58.19-.27.39-.66.58-1.19l3.62-9.63s.01-.05,0-.06c-.01-.01-.03-.02-.05-.02h-1.31Z"/><path class="cls-1" d="M250.66,60.69h-1.36s-.03,0-.05,0c-.02,0-.03.02-.03.04l-3.47,10.14c-.03.07-.07.12-.12.15s-.11.03-.16,0-.09-.08-.11-.15l-3.45-10.14s-.02-.04-.03-.04c-.02,0-.03,0-.05,0h-1.41s-.04,0-.05.02c-.01.01-.01.03,0,.06l4.1,11.75s.01.04.03.04c.01,0,.03,0,.04,0h2.03s.03,0,.05,0,.02-.02.03-.04l4.08-11.75c.02-.06,0-.08-.05-.08Z"/><path class="cls-1" d="M256.89,64.45c-.63-.44-1.42-.66-2.36-.66-.84,0-1.57.2-2.19.6s-1.1.94-1.44,1.63c-.33.69-.5,1.46-.5,2.3,0,.89.18,1.68.53,2.36.35.68.85,1.21,1.48,1.58.64.37,1.36.56,2.18.56.57,0,1.07-.08,1.52-.24.45-.16.85-.4,1.2-.71.25-.22.46-.47.63-.74.17-.27.3-.53.39-.75.09-.23.13-.38.13-.45,0-.05-.02-.08-.07-.08h-1.25s-.05,0-.07.01c-.02,0-.03.03-.04.06-.19.5-.49.9-.89,1.19-.4.29-.92.43-1.56.43-.55,0-1.03-.12-1.45-.37s-.74-.59-.98-1.04-.38-.97-.41-1.57h6.73s.07-.01.09-.03.04-.06.04-.13c.05-.79-.07-1.53-.35-2.23-.28-.7-.74-1.28-1.37-1.72ZM251.84,67.33c.1-.45.27-.85.51-1.19.24-.34.54-.61.91-.79.36-.19.77-.28,1.23-.28.74,0,1.34.19,1.8.58.46.39.76.95.9,1.69h-5.36Z"/><path class="cls-1" d="M264.19,64.03h-.67c-.35,0-.7.09-1.06.26-.36.17-.66.42-.9.74-.04.05-.08.08-.13.08s-.08,0-.11-.03c-.03-.03-.04-.06-.04-.11v-.88s0-.03-.02-.05-.03-.02-.05-.02h-1.16s-.03,0-.05.02-.02.03-.02.05v8.41s0,.03.02.05.03.02.05.02h1.23s.03,0,.05-.02.02-.03.02-.05v-4.96c0-.42.1-.79.29-1.13.19-.34.45-.61.78-.8.33-.19.69-.29,1.08-.29h.69s.03,0,.05-.02c.01-.01.02-.03.02-.05v-1.16s0-.03-.02-.05c-.01-.01-.03-.02-.05-.02Z"/><path class="cls-1" d="M266.55,60.66c-.15-.09-.32-.13-.49-.13s-.34.04-.49.13c-.15.09-.27.21-.36.36-.09.15-.13.31-.13.48s.04.33.13.47c.09.15.21.27.36.36.15.09.31.13.49.13s.34-.04.49-.13c.15-.09.28-.21.37-.36.09-.15.14-.31.14-.47s-.05-.33-.14-.48c-.09-.15-.22-.27-.37-.36Z"/><path class="cls-1" d="M266.67,64.03h-1.23s-.03,0-.05.02-.02.03-.02.05v8.41s0,.03.02.05.03.02.05.02h1.23s.03,0,.05-.02.02-.03.02-.05v-8.41s0-.03-.02-.05-.03-.02-.05-.02Z"/><path class="cls-1" d="M271.08,62.15c.12-.12.32-.18.61-.18h1.46s.03,0,.05-.02.02-.03.02-.05v-1.15s0-.03-.02-.05-.03-.02-.05-.02h-1.58c-.45,0-.82.06-1.11.18s-.52.32-.67.6-.23.65-.23,1.11v1.45h-1.43s-.03,0-.05.02-.02.03-.02.05v1.16s0,.03.02.05.03.02.05.02h1.43v7.18s0,.03.02.05.03.02.05.02h1.2s.04,0,.05-.02.02-.03.02-.05v-7.18h1.93s.03,0,.05-.02.02-.03.02-.05v-1.16s0-.03-.02-.05-.03-.02-.05-.02h-1.93v-1.3c0-.26.06-.45.18-.57Z"/><path class="cls-1" d="M279.64,64.35c-.65-.37-1.38-.56-2.19-.56s-1.54.19-2.19.56c-.65.37-1.16.9-1.53,1.58-.37.68-.56,1.47-.56,2.37s.18,1.69.55,2.37.87,1.21,1.52,1.59c.65.37,1.38.56,2.2.56s1.54-.19,2.19-.56c.65-.37,1.16-.9,1.52-1.59s.55-1.47.55-2.37-.18-1.69-.55-2.37c-.37-.68-.87-1.21-1.52-1.58ZM279.98,70.02c-.25.49-.6.86-1.04,1.12-.44.26-.94.39-1.5.39s-1.05-.13-1.5-.4c-.44-.26-.79-.64-1.04-1.12-.25-.48-.38-1.05-.38-1.7s.12-1.21.37-1.7c.25-.49.6-.86,1.04-1.13.44-.26.94-.4,1.51-.4s1.06.13,1.5.39c.44.26.78.63,1.03,1.11.25.48.37,1.06.37,1.72s-.12,1.23-.37,1.72Z"/><path class="cls-1" d="M288.68,64.22c-.49-.26-1.06-.39-1.71-.39-.56,0-1.03.1-1.43.29-.4.19-.71.43-.92.72-.04.06-.08.09-.13.1-.05.01-.09,0-.12-.03s-.05-.06-.05-.11v-.71s0-.03-.02-.05-.03-.02-.05-.02h-1.16s-.03,0-.05.02-.02.03-.02.05v8.41s0,.03.02.05.03.02.05.02h1.23s.03,0,.05-.02.02-.03.02-.05v-5.16c0-.43.1-.81.3-1.15.2-.34.48-.61.83-.8s.75-.29,1.2-.29c.42,0,.78.09,1.11.26.32.17.57.43.76.76.18.33.27.73.27,1.19v5.19s0,.03.03.05.03.02.05.02h1.22s.03,0,.05-.02c.01-.01.02-.03.02-.05v-5.44c0-.66-.13-1.23-.4-1.72-.27-.49-.65-.87-1.14-1.13Z"/><path class="cls-1" d="M297.94,64.45c-.63-.44-1.42-.66-2.36-.66-.84,0-1.57.2-2.19.6s-1.1.94-1.44,1.63c-.33.69-.5,1.46-.5,2.3,0,.89.18,1.68.53,2.36.35.68.85,1.21,1.48,1.58.64.37,1.36.56,2.18.56.57,0,1.07-.08,1.52-.24.45-.16.85-.4,1.2-.71.25-.22.46-.47.63-.74.17-.27.3-.53.39-.75.09-.23.13-.38.13-.45,0-.05-.02-.08-.07-.08h-1.25s-.05,0-.07.01c-.02,0-.03.03-.04.06-.19.5-.49.9-.89,1.19-.4.29-.92.43-1.56.43-.55,0-1.03-.12-1.45-.37s-.74-.59-.98-1.04-.38-.97-.41-1.57h6.73s.07-.01.09-.03.04-.06.04-.13c.05-.79-.07-1.53-.35-2.23-.28-.7-.74-1.28-1.37-1.72ZM292.89,67.33c.1-.45.27-.85.51-1.19.24-.34.54-.61.91-.79.36-.19.77-.28,1.23-.28.74,0,1.34.19,1.8.58.46.39.76.95.9,1.69h-5.36Z"/><circle class="cls-1" cx="43.01" cy="26.17" r="7.72"/><circle class="cls-1" cx="61.13" cy="8.04" r="7.72"/><path class="cls-1" d="M31.38,49.79c2.15-2.63,2.31-6.37.4-9.16,0,0,0-.01-.01-.02-.12-.17-.25-.35-.38-.51-.06-.08-.13-.15-.19-.22-.06-.07-.11-.14-.18-.21,0,0,0,0,0,0,0,0,0,0-.01-.01-.03-.03-.06-.05-.08-.08-.1-.1-.2-.2-.3-.29-.09-.08-.17-.16-.26-.24-.1-.08-.2-.16-.3-.23-.1-.08-.2-.16-.31-.23-.1-.07-.2-.13-.3-.19-.06-.04-.13-.08-.19-.12-1.44-.9-3.06-1.38-4.65-1.54-2.34-.17-4.93-.09-6.94-2.21-1.99-2.13-1.76-4.72-1.78-7.06-.05-1.6-.44-3.25-1.25-4.74-.33-.65-.75-1.26-1.27-1.82,0,0,0,0-.01-.01,0,0,0,0,0-.01-2.91-3.12-7.79-3.25-10.88-.32,0,0,0,0,0,0,0,0,0,0,0,0-.24.23-.46.47-.67.72-.15.18-.29.37-.42.56-.26.38-.49.79-.68,1.2,0,0,0,0,0,0-1.02,2.29-.88,4.98.48,7.16.27.44.59.85.96,1.24,0,0,0,0,0,0,0,0,0,0,.01.01.52.56,1.11,1.01,1.74,1.38,1.44.91,3.06,1.39,4.66,1.54,2.34.17,4.93.09,6.94,2.21,1.99,2.13,1.76,4.72,1.78,7.06.05,1.38.34,2.79.94,4.11.03.07.06.15.09.22.05.12.11.23.17.35.05.11.1.22.16.32.06.12.14.23.21.34.06.1.12.2.19.3.07.11.15.21.23.31.08.1.15.2.23.3.08.09.16.18.24.26.1.1.19.21.29.3.03.03.05.06.08.08.06.05.12.1.18.15.11.09.21.19.32.27.09.08.19.15.29.22.11.08.21.15.32.22.11.07.21.13.32.19.05.03.1.06.15.09.06.03.12.06.18.09.08.04.17.09.25.13.18.09.37.17.56.24.02,0,.03.01.05.02,2.07.77,4.4.63,6.38-.46,0,0,0,0,0,0,.2-.11.4-.23.59-.36.04-.03.08-.06.13-.09.15-.1.29-.21.43-.32.09-.07.17-.14.25-.22.07-.06.14-.11.21-.18h0s.06-.06.09-.09c.08-.08.15-.16.23-.24.11-.12.23-.24.33-.36.02-.03.04-.06.07-.08Z"/></svg>