<svg width="119" height="56" viewBox="0 0 119 56" fill="none" xmlns="http://www.w3.org/2000/svg">
<g clip-path="url(#clip0_6196_4805)">
<g clip-path="url(#clip1_6196_4805)">
<path d="M48.1174 3.21551C48.307 3.25641 48.5149 3.3363 48.3759 3.44172C48.1451 3.60997 47.7673 3.44157 47.747 3.75617C47.8742 3.75617 48.0032 3.75679 48.1286 3.75493C48.1104 3.82976 48.092 3.90514 47.9832 3.95752C47.7324 4.06986 47.4269 4.08819 47.1654 4.17627C47.0564 4.23246 46.9403 4.28906 46.826 4.36395C46.6989 4.40143 46.5659 4.43958 46.4333 4.47705C46.2025 4.5708 46.0383 4.70472 45.7621 4.7741C45.453 4.84912 45.1293 4.83094 44.8039 4.88721C44.6766 4.92469 44.562 4.96167 44.4384 4.98042C44.3293 4.98034 43.8694 4.88747 43.8642 4.96178C43.7371 5.05549 43.7552 5.20801 43.6082 5.28493C43.4629 5.35991 43.1916 5.32207 43.0153 5.35951C42.6789 5.45327 42.3443 5.56648 42.0061 5.66775C41.8244 5.7802 41.6478 5.88842 41.4679 5.99712C41.1809 6.12832 40.7847 6.12824 40.4811 6.25564C40.3902 6.31187 40.2903 6.34982 40.194 6.40603C40.0086 6.46227 39.8232 6.51883 39.6359 6.57506C38.9834 6.81509 38.3954 7.06224 37.7355 7.28351C37.4847 7.35848 37.2318 7.41485 36.9811 7.48984C36.7121 7.58361 36.4792 7.76582 36.1993 7.86892C35.9469 7.96248 35.6291 7.98103 35.3802 8.08394C35.1493 8.1777 35.0557 8.33881 34.8321 8.43444C34.6684 8.50931 34.4049 8.49112 34.2541 8.58483C34.109 8.67849 34.1091 8.81367 33.9297 8.90177C33.7334 8.99552 33.5186 9.05243 33.3133 9.12176C33.186 9.15929 33.1491 9.25198 33.0038 9.28955C32.822 9.3271 32.6052 9.29047 32.4507 9.34672C32.2603 9.42176 32.249 9.57572 32.0256 9.64502C31.8804 9.70102 31.6915 9.64515 31.521 9.64502C31.0446 9.64502 31.1382 9.85704 31.091 10.0539C31.0547 10.1286 31.0191 10.1854 30.9828 10.2528C30.7483 10.1964 30.5145 10.14 30.2818 10.0838C30.1005 10.1963 30.033 10.3626 29.7138 10.387C29.6592 10.387 29.6591 10.3871 29.6591 10.3684H29.6045C29.6045 10.2746 29.6049 10.175 29.6231 10.0775H29.5684C29.5684 10.0775 29.5684 10.0777 29.5684 10.0962H29.5137C29.4409 10.1899 29.3503 10.2995 29.2776 10.4007C29.2048 10.4007 29.2229 10.4005 29.2229 10.4193C29.5551 10.5506 29.4748 10.8256 29.295 10.9699C29.1004 11.1199 28.4717 11.1018 28.1627 11.175C27.9172 11.2313 27.9677 11.4 27.8296 11.5069C27.6297 11.6567 27.4041 11.8087 27.197 11.9568C27.1061 12.013 26.9793 12.0508 26.9521 12.1258C26.8979 12.2568 27.1479 12.328 27.141 12.4515C26.9503 12.4328 26.7828 12.3397 26.6029 12.321V12.3583C26.4394 12.4708 26.4755 12.6265 26.4574 12.7858C26.2466 12.7671 26.0409 12.71 25.8136 12.71C25.6865 12.7101 25.6315 12.7672 25.5315 12.7672C25.6952 13.0859 25.4771 12.9173 25.1971 13.0655C25.143 13.1216 25.1062 13.1772 25.0517 13.2333C24.9609 13.3646 24.7572 13.3834 24.5136 13.4209C24.4418 13.4209 24.4415 13.4214 24.4415 13.4582H24.3868C24.5322 13.6081 24.9678 13.7512 24.9573 13.933C24.1761 13.8206 24.3752 13.8023 23.8026 14.0648C23.6574 14.1209 23.479 14.1588 23.3937 14.2524C23.3034 14.346 23.3211 14.456 23.1911 14.5271C22.8238 14.724 22.3794 14.7878 22.0377 14.9547C21.8923 15.0298 21.762 15.1977 21.6984 15.3027C21.6079 15.4527 21.7524 15.6083 21.6797 15.7489C21.6247 15.8422 21.3396 15.8609 21.2596 15.9602V16.2224C21.1145 16.2224 20.971 16.2038 20.8259 16.2038C20.8259 16.3538 20.9345 16.6394 20.4493 16.5195C20.3947 16.5195 20.3759 16.4821 20.3759 16.5195C20.2667 16.5757 20.003 16.6876 20.0018 16.783C20.0018 16.8579 20.2272 16.9341 20.1473 17.0204C20.0742 17.0952 19.8945 17.132 19.7856 17.1882C19.6947 17.282 19.5942 17.3578 19.496 17.4479C19.3509 17.504 19.2086 17.5409 19.0634 17.5971C18.9546 17.6347 18.8998 17.7288 18.7527 17.7475C18.5713 17.7661 18.4151 17.729 18.2319 17.7102V17.7475C18.6025 17.8412 18.924 17.9672 19.3617 17.9973C19.5254 17.9597 19.7494 17.9599 19.9621 17.9786H20.2367C20.1639 18.3276 19.9902 18.9496 19.1417 18.8934C19.1417 18.8185 19.1062 18.7247 19.179 18.6573C19.2518 18.6011 19.4345 18.5631 19.44 18.4696C19.4945 18.4508 19.4947 18.4693 19.4947 18.4137C19.3311 18.4137 19.2113 18.4135 19.0858 18.451C18.9223 18.4885 18.3728 18.7543 18.3363 18.8462C18.3001 18.94 18.4091 19.0551 18.3363 19.1395C18.2093 19.1769 18.0838 19.2139 17.9585 19.2514C17.715 19.3451 17.5727 19.5702 17.1892 19.5534C17.0801 19.5533 16.9221 19.5151 16.9257 19.4589C16.8532 19.4589 16.8175 19.46 16.8175 19.5161C16.7267 19.5537 16.59 19.6288 16.5863 19.7038C16.7317 19.7602 16.9259 19.9006 17.1183 19.9138C17.0272 20.1007 16.7714 20.1005 16.4012 20.063C16.4376 20.1381 16.5093 20.2321 16.5093 20.3315C16.5093 20.4439 16.3642 20.5 16.3005 20.5863C16.1914 20.7363 16.1171 21.102 15.7225 21.1207C15.2045 21.1395 14.9558 20.7746 14.4088 21.0461C14.3179 21.0837 14.2067 21.1589 14.2012 21.2152C14.3958 21.2527 14.7904 21.2892 14.9122 21.3829C15.1084 21.5517 14.3392 22.0606 15.29 22.1225C15.29 22.1598 15.272 22.1972 15.254 22.2343C15.1086 22.3094 14.9736 22.3658 14.8339 22.4332C14.6884 22.527 14.6513 22.7074 14.4896 22.7974C14.417 22.8347 14.3261 22.8347 14.2137 22.8347C14.0302 22.8159 13.8505 22.5791 14.0024 22.5898C14.0024 22.5898 14.0024 22.5888 14.0024 22.5513C13.3611 22.5325 12.7015 22.4394 12.6737 22.8719C13.0644 22.9095 14.0787 22.9099 14.1304 23.174C14.1486 23.2678 14.0392 23.3246 14.021 23.3977C14.0392 23.4913 14.0749 23.585 14.0931 23.6637C14.1657 23.6637 14.2391 23.7009 14.3081 23.701C14.4717 23.5884 14.5979 23.5132 14.9196 23.5319H15.1918C15.1374 23.7998 14.994 23.769 14.8488 23.9557C14.8306 24.0119 14.7937 24.0686 14.7754 24.1434C14.6665 24.2185 14.5775 24.3126 14.4759 24.3932C14.4213 24.487 14.3664 24.5921 14.3118 24.6915C14.221 24.804 13.965 24.9239 13.9576 25.057C13.5451 24.9819 13.6428 24.8584 13.6556 24.658C13.6374 24.658 13.6191 24.6555 13.6009 24.6555C13.0283 24.8711 12.0762 24.5248 12.747 24.341C12.7108 24.341 12.656 24.3409 12.6016 24.3224C12.2909 24.2099 11.9885 24.1006 11.6359 24.2279C11.4252 24.303 11.194 24.5454 11.5265 24.6505C11.7883 24.7255 12.1945 24.6126 12.4562 24.7251C12.5829 24.7813 12.5464 24.8564 12.5643 24.9389C12.5643 24.9763 12.5468 25.0519 12.6377 25.0706C12.6377 25.0706 12.6389 25.0509 12.6389 25.0321C12.9534 25.0321 13.2848 25.0889 13.3648 25.2595C13.3648 25.2971 13.4192 25.3154 13.3287 25.3155V25.3341C13.0942 25.3341 12.8591 25.2968 12.6227 25.2968C12.6227 25.3718 12.5684 25.4902 12.6227 25.5653C12.7682 25.734 13.2604 25.7152 13.1883 25.9717C13.0974 26.0842 13.0251 26.1973 12.9397 26.3098C12.9397 26.4036 12.9763 26.4789 12.9944 26.5708C12.9941 26.7207 12.8666 26.8909 12.7595 27.0145C12.6322 27.1646 12.2779 27.2025 12.1069 27.3414C11.9161 27.4913 11.9973 27.7026 11.872 27.8845C11.7448 28.0851 11.4372 28.2313 11.3189 28.4414C11.2281 28.6363 11.1373 28.8323 11.0517 29.0255C10.9608 29.1937 10.813 29.1942 10.7857 29.4469C10.7857 29.4843 10.8032 29.4842 10.7311 29.4655V29.4842C10.0657 29.3528 10.694 28.8748 10.0089 28.9572C9.9181 28.9572 9.66647 29.014 9.66465 29.0703H9.61121C9.75674 29.2579 10.0474 29.5621 9.90578 29.7514C9.79682 29.8451 9.68537 29.9379 9.57641 30.0335C9.54005 30.0709 9.44947 30.1278 9.54036 30.1466C9.76226 29.9442 10.3763 29.867 10.393 29.5935C10.6992 29.5937 10.7416 29.7055 10.7435 29.8496C10.7417 30.1682 10.2806 30.4162 10.0984 30.686C10.0804 30.761 10.0429 30.8553 10.0065 30.9321C9.91561 31.174 9.8434 31.4179 9.73798 31.6692C9.68345 31.8004 9.61099 32.0164 9.52918 32.144C9.47473 32.2001 9.41956 32.2556 9.36511 32.3117C9.32875 32.5125 9.2747 32.712 9.23834 32.9108C9.20186 33.1976 8.90698 33.4976 8.53983 33.6777C8.41258 33.7339 8.21833 33.753 8.13837 33.8467C8.13695 33.8492 8.12455 33.8688 8.11227 33.884H8.23035C8.42748 33.8983 8.51348 34.0107 8.53113 34.1139V34.1711C8.53062 34.5342 7.86637 34.4504 7.73319 34.759C7.58776 35.0872 8.15429 35.3033 8.17069 35.547C8.17069 35.547 8.17069 35.547 8.17069 35.5657C8.17069 35.6969 7.91468 35.7967 7.86742 35.9261C7.81304 36.0758 7.9216 36.2276 7.86742 36.3512C7.83106 36.4263 7.67811 36.4454 7.5654 36.4829C7.27485 36.5765 6.96457 36.7227 6.94768 36.9154C6.9295 37.103 7.14533 37.2464 7.21987 37.4076C7.31067 37.6083 7.32987 37.8055 7.44981 37.9968C7.52289 38.1092 7.71508 38.261 7.68969 38.3883C7.67138 38.5007 7.52482 38.5574 7.30315 38.5387C7.30315 38.4074 7.3406 38.2789 7.2497 38.1608C7.15882 38.0295 6.95679 37.9212 6.96757 37.7619H6.91288C6.87646 37.9305 6.72399 37.9835 6.65311 38.126C6.58071 38.2757 6.65406 38.446 6.67051 38.5884C6.67051 38.6259 6.63477 38.7015 6.74384 38.7015V38.7201H6.79853C6.79853 38.7201 6.79853 38.7014 6.79853 38.6828C6.85414 38.6824 7.5205 38.4486 7.51071 38.607C7.51071 38.6821 7.49316 38.7391 7.43862 38.8009C7.23138 39.0071 6.97083 38.8754 6.58724 38.8941C6.34937 38.8942 6.10799 38.9881 5.9807 39.0967C5.60446 39.4061 6.05317 39.5955 6.19324 39.8711C6.38232 40.2479 6.13819 40.4352 5.61281 40.5609C5.38014 40.6171 5.11265 40.7114 4.8273 40.6926C4.82729 40.4526 4.77372 40.1298 5.25361 40.0997C5.32609 40.0997 5.46289 40.0816 5.46242 40.1184C5.49878 40.0435 5.55293 39.9682 5.58919 39.8934C5.2624 39.8183 5.15337 39.6592 4.91554 39.5243C4.82468 39.4868 4.73306 39.4312 4.64583 39.3938C4.53683 39.3187 4.50038 39.2437 4.36245 39.1875C4.36245 39.1875 4.34444 39.1875 4.32641 39.1875V39.2247C3.6794 39.3935 4.04905 40.1484 4.02563 40.5124C3.95318 40.5124 3.91749 40.5126 3.91749 40.4751C3.55027 40.325 3.35748 40.1128 3.15933 39.9121C2.68307 39.4339 2.55575 39.2181 2.57392 38.6406C2.57425 38.4911 2.70112 38.4143 2.71934 38.2739C2.71934 38.0639 2.57346 37.8724 2.64601 37.6326C2.73687 37.5013 2.81033 37.3871 2.8921 37.2635C2.96476 37.0761 3.0191 36.9069 3.09718 36.729C3.16989 36.5302 3.11473 36.3287 3.16927 36.1262C3.22376 36.0326 3.26023 35.9576 3.31469 35.8714C3.35102 35.6841 3.40635 35.5137 3.44271 35.332C3.49724 35.2195 3.56923 35.1059 3.63287 34.9914C3.70537 34.778 3.68774 34.5741 3.77829 34.37C3.851 34.2762 3.90625 34.2002 3.97715 34.1102V33.7398C4.01351 33.5711 4.06758 33.396 4.10393 33.2215C4.12212 33.0529 4.15909 32.9031 4.17726 32.7418C4.30444 32.6106 4.43663 32.4678 4.5638 32.3291C4.67289 32.2166 4.83146 32.0981 4.87328 31.965C4.94577 31.7176 4.873 31.4585 4.90933 31.213C4.946 31.0215 5.29843 30.4152 5.62896 30.3716C5.77435 30.3528 5.88936 30.4087 6.03291 30.4275V30.3902C6.05103 30.3716 6.06947 30.353 6.08759 30.3343C6.1603 30.1468 5.8333 30.0283 5.89867 29.8409C5.98952 29.7471 6.06243 29.6537 6.14601 29.5562C6.20055 29.4249 6.07298 29.2854 6.18205 29.1598C6.30921 29.066 6.427 28.9719 6.54871 28.8876C6.56685 28.8127 6.58574 28.7188 6.62204 28.6365C6.69463 28.5616 6.74897 28.4678 6.82339 28.378C6.93245 28.1341 6.98804 27.8965 7.10801 27.6509C7.18072 27.5008 7.4313 27.41 7.50947 27.2619C7.71845 26.8703 7.99299 26.5329 8.20922 26.1432C8.28193 26.0119 8.17301 25.9029 8.26391 25.7865C8.35483 25.6741 8.55966 25.5987 8.70141 25.5032C8.81047 25.4094 8.91101 25.3124 9.01462 25.2148C9.17823 25.046 9.16039 24.81 9.32037 24.6393C9.39299 24.5832 9.48331 24.5265 9.55776 24.4703C9.66681 24.3765 9.7674 24.2794 9.87097 24.1894C9.98006 24.0582 10.0749 23.9261 10.1767 23.7929C10.2856 23.6807 10.452 23.5682 10.5645 23.4524C10.6553 23.3587 10.6019 23.2553 10.6018 23.1466C10.6018 23.0341 10.7108 22.9122 10.7944 22.8222C10.9399 22.691 11.1016 22.5782 11.2543 22.4543C11.4361 22.3606 11.7274 22.36 11.8273 22.2269C11.8636 22.1522 11.8993 22.0772 11.9354 21.9932C12.0627 21.8432 12.2068 21.6927 12.3394 21.5445C12.5467 21.2446 12.7524 20.9446 12.9596 20.6447C13.0505 20.551 13.2563 20.5506 13.3635 20.457C13.4361 20.3633 13.5079 20.269 13.5823 20.1848C13.6731 20.1285 13.7653 20.0919 13.8507 20.0356C13.9415 19.9232 14.032 19.8218 14.1229 19.715C14.3319 19.5218 14.5409 19.3258 14.7481 19.1308C14.7844 19.0371 14.8213 18.9342 14.8575 18.835C14.9666 18.6363 15.1517 18.437 15.3298 18.2608C15.5134 18.167 15.6973 18.0607 15.8791 17.9575C15.97 17.845 16.0718 17.7468 16.1663 17.6418C16.3536 17.447 16.6213 17.2706 16.8175 17.0775C16.9445 17.0028 17.0571 16.9468 17.1767 16.8774C17.2676 16.7838 17.3047 16.6791 17.4265 16.5928C17.7065 16.4054 17.9875 16.2204 18.2692 16.0348C18.4907 15.8661 18.4333 15.5988 18.6421 15.4245C18.7512 15.3307 18.9609 15.3119 19.1045 15.2331C19.1953 15.1393 19.2983 15.0445 19.3965 14.9584C19.6401 14.8459 19.8838 14.7427 20.1274 14.634C20.2726 14.5027 20.4346 14.3601 20.5872 14.2214C20.7143 14.1278 20.8959 14.0714 21.0285 13.9927C21.2793 13.824 21.4433 13.6294 21.6922 13.4607C21.8193 13.3858 21.9704 13.292 22.1085 13.2171C22.2358 13.1796 22.349 13.1229 22.469 13.0854C22.5054 13.0292 22.5594 12.9725 22.5958 12.9163C22.6866 12.8227 22.8945 12.7857 23.0072 12.7125C23.098 12.6375 23.1928 12.5626 23.2856 12.4838C23.4127 12.4276 23.6004 12.3899 23.7057 12.2961C23.8144 12.2025 23.7784 12.0989 23.8511 12.0053C23.9241 11.9119 24.1507 11.9111 24.2886 11.8362C24.4339 11.78 24.4343 11.6868 24.567 11.6175C24.8359 11.4862 25.1791 11.4036 25.488 11.3117C25.6825 11.218 25.8758 11.1171 26.0684 11.0197C26.1957 10.9259 26.336 10.8501 26.4686 10.7524C26.5773 10.7151 26.6754 10.6594 26.7769 10.6219C26.8859 10.547 26.8869 10.4346 27.0304 10.3821C27.314 10.2696 27.7116 10.2686 27.9551 10.1148C28.137 10.0023 28.3632 9.89176 28.5269 9.77925C28.6358 9.68566 28.7486 9.61066 28.8575 9.52819C29.0208 9.45338 29.1751 9.37873 29.331 9.31317C29.5511 9.18182 29.6332 9.05342 29.9115 8.94651C30.0568 8.89024 30.1953 8.85361 30.3353 8.79736C30.5169 8.75988 30.7312 8.74046 30.8784 8.68426C30.9692 8.60931 31.0417 8.55286 31.1307 8.47421C31.2944 8.38046 31.4619 8.30508 31.6254 8.2132C31.7527 8.1382 31.9441 8.1577 32.0642 8.0827C32.1914 8.00768 32.2277 7.87415 32.4258 7.82915C32.4806 7.82905 32.7326 7.77334 32.7279 7.82915C32.9113 7.88543 32.9553 7.99781 33.1206 8.06903C33.2302 8.12542 33.9646 8.3763 34.1124 8.38596C34.167 8.34847 34.258 8.27407 34.3362 8.29275C34.2999 8.23649 34.2272 8.19861 34.2454 8.14236C34.1546 8.14236 33.8069 8.17997 33.8104 8.12371H33.757C33.7752 8.06752 33.7928 8.01087 33.8291 7.95468C33.6473 7.95469 33.3832 7.99238 33.2288 7.91739C33.0465 7.82312 33.5179 7.34285 33.6961 7.28227C33.8232 7.2448 34.0178 7.24493 34.1995 7.26363C34.1995 7.3759 34.2002 7.49565 34.1821 7.61164H34.5176C34.6267 7.59289 34.7108 7.51848 34.8507 7.51842C35.3104 7.49967 35.8141 7.63074 36.2266 7.51842C36.5848 7.42466 36.6489 7.08848 36.9052 7.06974H37.16C37.16 7.03254 37.1416 7.05099 37.2135 7.05109C37.1404 7.01389 36.8922 6.99489 36.8941 6.93923H36.8394C36.9302 6.49292 37.5702 6.51802 38.0574 6.28174C38.3173 6.15052 38.6735 5.91475 38.9026 5.75724C38.9752 5.701 39.0301 5.62581 39.1027 5.56956C39.2299 5.53207 39.3539 5.49526 39.4793 5.43905C39.7592 5.34532 39.7755 5.23638 40.2151 5.27002C40.4477 5.19501 40.8288 5.01803 41.1286 5.17556C41.183 5.21302 41.2014 5.26984 41.1833 5.30731C41.1651 5.32605 41.1106 5.36324 41.1833 5.36324C41.1833 5.40067 41.1646 5.40052 41.2367 5.40052C41.3458 5.45678 41.5555 5.47622 41.7227 5.49498C42.0061 5.3076 41.7229 5.15172 41.8495 4.92698C41.9222 4.77696 43.47 4.23302 43.7772 4.1974C44.4713 4.12251 44.5895 4.46494 45.1693 4.29062C45.3674 4.23437 45.566 4.17832 45.5769 4.03209C45.5042 3.99462 45.3077 3.91931 45.3781 3.86306C45.5234 3.75058 46.2375 3.90064 46.227 4.07684C47.0506 4.02058 46.6296 3.73197 47.0659 3.51256C47.3023 3.40023 47.6544 3.39941 47.9123 3.28884L48.1174 3.21551Z" fill="white"/>
<path d="M16.6622 21.506C16.7266 21.5357 16.7608 21.5708 16.7343 21.6266C16.607 21.8142 16.4951 21.9817 16.3751 22.156C16.3024 22.306 16.2116 22.4696 16.1426 22.6271C16.0329 22.7774 15.4586 23.258 15.1098 23.2336C15.1283 23.0428 15.3034 22.9436 15.387 22.7862C15.4232 22.6925 15.4414 22.599 15.4777 22.509C15.5685 22.3403 15.7389 22.2103 15.8642 22.0566C15.937 21.9629 15.9921 21.8658 16.0594 21.7682C16.2411 21.6746 16.4174 21.5731 16.5938 21.4737L16.6622 21.506Z" fill="white"/>
<path d="M18.4582 19.5907C18.571 19.6531 18.5024 19.7081 18.4706 19.8032C18.4705 19.8781 18.4515 19.972 18.4333 20.0543C18.2875 20.3131 17.6525 20.6602 17.3308 20.887C17.1491 20.9995 17.1336 21.2616 16.8063 21.3009C16.7521 21.301 16.7156 21.3197 16.7156 21.2823C16.6975 21.2823 16.6791 21.2798 16.6609 21.2798C16.6793 21.0605 16.8068 20.7352 16.9828 20.5626C17.0737 20.5064 17.1647 20.4497 17.2538 20.4122C17.3446 20.3185 17.3451 20.1934 17.485 20.1127C17.6666 20.0191 17.9384 20.0183 18.0642 19.8877C18.1004 19.8315 18.156 19.6156 18.2469 19.6193C18.3012 19.6191 18.3554 19.5822 18.4097 19.582L18.4582 19.5907Z" fill="white"/>
<path d="M18.9404 19.1383C19.0331 19.1841 19.0167 19.2422 19.0112 19.3434H18.79C18.7354 19.2496 18.7172 19.1554 18.79 19.0823L18.9404 19.1383Z" fill="white"/>
<path d="M19.1616 18.932C19.249 18.9688 19.3627 19.0425 19.2387 19.0426C19.2387 19.0426 19.238 19.0624 19.2362 19.0811H19.0199C19.0381 19.0437 19.0569 18.987 19.0933 18.9307L19.1616 18.932Z" fill="white"/>
<path d="M21.072 17.0042C21.1285 17.0089 21.1733 17.0178 21.1714 17.0365H21.2261C21.2261 17.149 21.2076 17.2728 21.1167 17.3684C21.044 17.4246 20.9893 17.4812 20.9166 17.5374V17.8208C20.6277 17.7645 20.4209 17.5874 20.5736 17.4243C20.628 17.3681 20.7006 17.3115 20.755 17.2553C20.8094 17.1617 20.8102 17.063 20.9191 16.9843L21.072 17.0042Z" fill="white"/>
<path d="M21.466 16.6935C21.5386 16.7182 21.5156 16.774 21.502 16.8302H21.282V16.7929H21.2273V16.7743C21.2637 16.7367 21.3004 16.6986 21.3367 16.6612L21.466 16.6935Z" fill="white"/>
<path d="M23.3838 15.2405C23.4471 15.2705 23.4646 15.306 23.4509 15.3624C23.4143 15.5777 23.1487 15.5811 22.9487 15.7253C22.9307 15.744 22.9123 15.7635 22.8941 15.8011C22.8758 15.8573 22.84 15.9139 22.822 15.9888C22.6943 16.1389 21.5837 16.6591 21.6164 16.1566C21.6896 16.1564 22.1798 16.0261 22.2254 16.0261V15.9701C22.1163 15.9139 22.015 15.8383 22.0203 15.7501H22.075C22.2565 15.694 22.4277 15.6559 22.6057 15.5997C22.8399 15.4687 23.0743 15.3511 23.3067 15.2256L23.3838 15.2405Z" fill="white"/>
<path d="M24.4527 14.7732C24.4975 14.7826 24.5422 14.7919 24.5856 14.7919V14.8851H24.3122V14.7359L24.4527 14.7732Z" fill="white"/>
<path d="M24.1245 14.7223C24.1699 14.7317 24.2153 14.7409 24.26 14.7409C24.2582 14.7784 24.26 14.8165 24.26 14.854C24.1691 14.854 24.0776 14.8541 23.9866 14.8354V14.685L24.1245 14.7223Z" fill="white"/>
<path d="M24.9374 13.9653C24.9824 13.9771 25.0267 13.992 25.0704 14.0014V14.1692C24.9614 14.1692 24.852 14.1692 24.7447 14.1505C24.7629 14.0756 24.7818 14.0196 24.8181 13.9504L24.9374 13.9653Z" fill="white"/>
<path d="M25.9342 13.457C26.0215 13.494 26.1501 13.5675 26.0349 13.5676V13.6049H25.8161C25.8343 13.5673 25.8532 13.5106 25.8894 13.4731L25.9342 13.457Z" fill="white"/>
<path d="M25.7316 13.0182C25.8951 13.0556 26.053 13.1303 26.046 13.2407C25.8483 13.1845 25.7879 13.1287 25.7316 13.0182Z" fill="white"/>
<path d="M28.3777 11.7927C28.434 11.7974 28.4785 11.8065 28.4772 11.8251H28.5318C28.4956 11.9564 28.1466 12.4419 27.7687 12.2775C27.5233 12.165 28.0705 11.846 28.2087 11.7766L28.3777 11.7927Z" fill="white"/>
<path d="M29.9239 10.6816C30.0579 10.7007 30.0716 10.7834 30.0668 10.8655H29.7934C29.8116 10.8093 29.8303 10.7528 29.8667 10.6965L29.9239 10.6816Z" fill="white"/>
<path d="M34.8756 6.84726C35.0594 6.91877 35.1649 7.05735 34.9029 7.11324C34.6956 7.13198 34.4874 7.15041 34.2802 7.16917C34.3165 6.95921 34.4899 6.9105 34.7936 6.82613L34.8756 6.84726Z" fill="white"/>
<path d="M36.6082 6.58625C36.6331 6.60732 36.6467 6.63149 36.6467 6.65958C36.6824 6.82755 36.4086 6.77148 36.2179 6.80873C36.1089 6.82746 36.0195 6.84715 35.9196 6.8659C35.7924 6.8659 35.6753 6.84601 35.5517 6.84601C35.5158 6.75266 35.5517 6.67779 35.5517 6.58625C35.9533 6.54876 36.1211 6.64264 36.4827 6.53032L36.6082 6.58625Z" fill="white"/>
<path d="M36.5784 6.18355C36.8741 6.22105 37.1158 6.29544 37.1053 6.4806C36.7454 6.4806 36.1076 6.46296 36.5784 6.18355Z" fill="white"/>
<path d="M44.2458 3.93142C44.3548 3.95015 44.4611 3.98703 44.4558 4.06192C44.3287 4.02444 44.3093 4.00629 44.2458 3.93142Z" fill="white"/>
<path d="M49.4896 2.89981C49.8258 2.66376 50.0476 2.82472 50.382 2.91846C50.5453 2.9372 50.6925 2.95565 50.8468 2.97439C51.0286 2.91817 51.3265 2.82408 51.5627 2.84264V2.824L51.7529 2.82773C51.9332 2.84441 52.1018 2.87953 52.2724 2.8936C52.0396 3.1505 51.7228 3.35523 51.0519 3.26523C50.9428 3.26495 50.7608 3.17184 50.6355 3.2093C50.4731 3.24698 50.5087 3.41406 50.4404 3.4094C50.2949 3.44691 50.0961 3.46613 49.9979 3.54115C49.9255 3.59735 49.9075 3.67264 49.804 3.73628C49.6588 3.81125 49.3929 3.82927 49.2112 3.88543C49.0839 3.92294 48.9637 3.96103 48.8383 3.99854C48.711 4.01728 48.3106 3.99784 48.2815 3.90408C48.2643 3.82952 48.4463 3.8108 48.5624 3.8295C48.7846 3.75457 49.4924 3.6978 49.5505 3.56849C49.6048 3.45605 49.4604 3.35097 49.5331 3.23664C49.5515 3.19919 49.6056 3.14359 49.6959 3.14342V3.08749C49.6408 3.06838 49.3372 2.89044 49.4896 2.89981Z" fill="white"/>
<path d="M53.0082 2.42627C53.214 2.45264 53.402 2.49466 53.5998 2.53689C53.7451 2.57435 53.892 2.61253 54.0373 2.64999V2.74321C53.768 2.79958 52.5979 3.13357 52.5049 2.83767C52.4867 2.78141 52.5418 2.52569 52.5782 2.52943C52.6326 2.47349 52.7053 2.45491 52.8031 2.43621L53.0082 2.42627Z" fill="white"/>
<path d="M51.2296 2.52322C51.5294 2.63477 50.5381 2.78403 50.5398 2.69349H50.4851C50.4851 2.63726 50.4856 2.54308 50.5945 2.56175C50.7782 2.56175 50.962 2.52458 51.1439 2.50582L51.2296 2.52322Z" fill="white"/>
<path d="M59.081 1.65567C59.2281 1.72501 59.2011 1.80517 59.0263 1.88064C58.9173 1.93689 58.8147 2.01206 58.7057 2.06832C58.5423 2.12434 58.3464 2.08701 58.1613 2.1056C57.9978 2.12434 57.8283 2.14393 57.6591 2.18142C57.4774 2.18142 57.2953 2.18152 57.1135 2.16278H56.9171C56.7721 2.20028 56.7536 2.31217 56.6648 2.37407C56.5558 2.46783 56.0264 2.6617 55.8246 2.67858C55.412 2.71604 55.1482 2.54724 54.7992 2.47599C54.7081 2.47587 54.3201 2.38192 54.4873 2.30695C54.598 2.2513 55.3963 2.40009 55.5723 2.41881V2.38153C55.6295 2.38094 56.2892 2.25117 56.2833 2.38153H56.3379C56.5811 2.01815 56.4468 1.92259 57.29 1.97883C57.5536 1.90381 57.9267 1.97905 58.2048 1.94154C58.5245 1.88522 58.7138 1.72202 59.0027 1.63579L59.081 1.65567Z" fill="white"/>
<path d="M51.9915 2.19882C52.0455 2.20117 52.0999 2.20561 52.1544 2.21498C52.0635 2.30874 51.9482 2.36537 51.7082 2.36537C51.7264 2.30911 51.7635 2.25259 51.8362 2.19633L51.9915 2.19882Z" fill="white"/>
<path d="M54.5308 1.78618C54.6145 1.7932 54.6867 1.80775 54.6849 1.83589C54.703 1.83589 54.7214 1.83651 54.7396 1.83838C54.74 1.87643 54.775 1.98736 54.6849 1.98753C54.325 2.06254 54.0811 2.06307 54.0647 2.32559C53.9374 2.32558 53.303 2.26874 53.3065 2.21249H53.2518V2.10063C53.6517 2.04438 53.9102 1.85803 54.3083 1.79239L54.5308 1.78618Z" fill="white"/>
<path d="M60.4519 1.31263C60.5076 1.32201 60.5518 1.34121 60.5501 1.37851C60.7665 1.72914 60.5856 1.93589 59.9038 1.94527C59.7407 1.94519 59.6317 1.90809 59.4812 1.88934C59.4812 1.85183 59.4621 1.81373 59.4439 1.77623C59.5156 1.77623 60.0366 1.61234 60.053 1.6072C59.98 1.51366 59.7935 1.43859 59.8007 1.33003C59.8371 1.3319 59.8736 1.33003 59.91 1.33003C60.037 1.33001 60.1676 1.31145 60.2928 1.29275L60.4519 1.31263Z" fill="white"/>
<path d="M62.2343 1.09388C62.2792 1.10324 62.3237 1.1125 62.3672 1.11253C62.3856 1.24347 62.5125 1.32401 62.5127 1.44189C62.1892 1.53563 61.8369 1.73311 61.4537 1.74268C61.3813 1.74268 61.3447 1.76075 61.3443 1.72403H61.2896C61.2533 1.1953 61.3802 1.29012 62.0926 1.08021L62.2343 1.09388Z" fill="white"/>
<path d="M57.817 1.4593C57.9986 1.49674 58.1407 1.55286 58.1339 1.65567C57.8268 1.65567 57.4307 1.58108 57.817 1.4593Z" fill="white"/>
<path d="M64.8742 1.16349C64.928 1.16583 64.9822 1.17026 65.0357 1.17964C64.9813 1.29215 64.8349 1.37118 64.5895 1.34868C64.5895 1.34868 64.5895 1.33005 64.5895 1.31139H64.5349C64.5368 1.27388 64.5349 1.25442 64.5349 1.21693C64.5895 1.19817 64.6443 1.16111 64.6989 1.14236L64.8742 1.16349Z" fill="white"/>
<path d="M63.3814 1.02801C63.4268 1.03975 63.4722 1.05465 63.5169 1.06405C63.5171 1.12096 63.5343 1.29587 63.4436 1.29026C63.2983 1.32774 63.1325 1.34619 62.9489 1.34619C62.9671 1.17767 63.0043 1.09677 63.2422 1.01807L63.3814 1.02801Z" fill="white"/>
<path fill-rule="evenodd" clip-rule="evenodd" d="M6.06152 43.332C7.38292 43.3321 8.34308 43.4628 8.95747 43.8677C9.77723 44.4041 10.2327 45.2821 10.2327 46.3697C10.2327 47.6689 9.71355 48.5468 8.54856 49.1637C9.69706 49.6663 10.2637 50.4951 10.2638 51.8111C10.2638 54.0181 9.03713 54.9941 6.47044 54.9941H0.250977V43.332H6.06152ZM2.62864 52.9309H6.13983C7.19382 52.9308 7.69718 52.5405 7.69718 51.5675C7.69711 50.5926 7.19375 50.1855 6.13983 50.1854H2.62864V52.9309ZM2.62864 48.1246H6.10875C7.16277 48.1245 7.666 47.7178 7.6661 46.7749C7.6661 45.8337 7.16287 45.4264 6.10875 45.4263H2.62864V48.1246Z" fill="white"/>
<path fill-rule="evenodd" clip-rule="evenodd" d="M17.7448 43.332C20.4205 43.3321 21.6959 44.3898 21.6959 46.8407C21.6958 48.6444 20.8779 49.7976 19.4127 50.122L22.2329 54.9941H19.5544L17.0686 50.4128H14.2646V54.9941H11.887V43.332H17.7448ZM14.2646 48.3496H17.1768C18.5946 48.3496 19.2871 48.0592 19.2872 46.8743C19.2872 45.6704 18.5947 45.4114 17.1768 45.4114H14.2646V48.3496Z" fill="white"/>
<path d="M25.9454 54.9941H23.4584V43.332H25.9454V54.9941Z" fill="white"/>
<path fill-rule="evenodd" clip-rule="evenodd" d="M32.9703 43.332C36.6057 43.3322 38.2911 45.2485 38.2911 49.3738C38.2911 51.4853 37.7232 53.0111 36.5597 53.9712C35.4563 54.8807 34.4019 54.9941 33.0312 54.9941H27.7886V43.332H32.9703ZM30.1663 52.9645H32.923C35.0332 52.9643 35.6934 52.0381 35.6934 49.1637C35.6934 46.3042 35.0332 45.3631 32.923 45.3629H30.1663V52.9645Z" fill="white"/>
<path d="M49.8016 45.3455H44.6833C42.7783 45.3456 42.0074 46.5967 42.0074 49.2594C42.0074 51.7458 42.7621 52.8824 44.6833 52.8825H47.3593V50.1394H44.1787V48.0737H49.8016V54.9941H44.6833C43.3146 54.9941 42.2269 54.9181 41.0926 53.9712C39.9277 53.0111 39.3625 51.4849 39.3625 49.3738C39.3625 45.2484 41.0622 43.3321 44.6833 43.332H49.8016V45.3455Z" fill="white"/>
<path d="M60.4619 45.3629H56.5555C54.8397 45.363 53.9742 46.2382 53.8795 48.0737H60.4619V50.1046H53.8634C53.8634 52.201 54.6831 52.9644 56.5555 52.9645H60.4619V54.9941H56.4461C55.0757 54.9941 54.0215 54.8806 52.92 53.9712C51.7548 53.0111 51.1874 51.4852 51.1874 49.3738C51.1874 45.2483 52.873 43.332 56.5107 43.332H60.4619V45.3629Z" fill="white"/>
<path d="M66.8218 52.2995L69.0255 43.332H71.8295L74.365 52.2995L76.8048 43.332H79.2446L75.7483 54.9941H72.8362L70.4275 46.2889L68.3183 54.9941H65.4211L61.6576 43.332H64.208L66.8218 52.2995Z" fill="white"/>
<path fill-rule="evenodd" clip-rule="evenodd" d="M89.7371 54.9941H87.0922L86.0519 52.2163H81.14L80.1308 54.9941H77.6114L82.3978 43.332H84.9197L89.7371 54.9941ZM81.9106 50.1394H85.2789L83.5637 45.655L81.9106 50.1394Z" fill="white"/>
<path d="M97.6594 45.3791H93.9903V54.9941H91.5344V45.3791H87.8827V43.3482H97.6594V45.3791Z" fill="white"/>
<path d="M107.122 45.3629H103.219C101.503 45.3629 100.636 46.2381 100.543 48.0737H107.122V50.1046H100.525C100.525 52.2011 101.344 52.9645 103.219 52.9645H107.122V54.9941H103.107C101.738 54.9941 100.684 54.8806 99.5809 53.9712C98.4175 53.0111 97.8483 51.4852 97.8483 49.3738C97.8483 45.2484 99.5334 43.3321 103.169 43.332H107.122V45.3629Z" fill="white"/>
<path fill-rule="evenodd" clip-rule="evenodd" d="M114.805 43.332C117.481 43.3321 118.756 44.3898 118.756 46.8407C118.756 48.6444 117.939 49.7976 116.476 50.122L119.293 54.9941H116.616L114.129 50.4128H111.325V54.9941H108.947V43.332H114.805ZM111.325 45.4114V48.3496H114.237C115.655 48.3496 116.347 48.0592 116.348 46.8743C116.348 45.6704 115.655 45.4114 114.237 45.4114H111.325Z" fill="white"/>
</g>
</g>
<defs>
<clipPath id="clip0_6196_4805">
<rect width="119" height="56" fill="white"/>
</clipPath>
<clipPath id="clip1_6196_4805">
<rect width="119.636" height="56" fill="white" transform="translate(-0.244141)"/>
</clipPath>
</defs>
</svg>
