<svg width="1921" height="488" viewBox="0 0 1921 488" fill="none" xmlns="http://www.w3.org/2000/svg">
<path d="M-246.381 1270.83C1597.39 -684.02 2699.48 394.968 2699.48 394.968" stroke="url(#paint0_linear_7294_14839)" stroke-width="2" stroke-miterlimit="10"/>
<path d="M2706.4 392.982C2698.46 394.498 2315.47 25.9981 1629.65 124.262C1152.41 193.367 515.628 460.706 -246.672 1257.5" stroke="url(#paint1_linear_7294_14839)" stroke-width="2" stroke-miterlimit="10"/>
<path d="M2713.32 391.01C2697.44 394.043 2315 32.5578 1636.46 135.694C1163.77 209 521.556 452.213 -246.964 1244.18" stroke="url(#paint2_linear_7294_14839)" stroke-width="2" stroke-miterlimit="10"/>
<path d="M2720.24 389.038C2696.42 393.587 2314.3 37.6013 1643.28 147.135C1174.96 223.572 527.485 443.718 -247.263 1230.85" stroke="url(#paint3_linear_7294_14839)" stroke-width="2" stroke-miterlimit="10"/>
<path d="M2727.17 387.061C2695.42 393.131 2313.75 43.6705 1650.1 158.563C1186.25 238.867 533.426 435.228 -247.554 1217.52" stroke="url(#paint4_linear_7294_14839)" stroke-width="2" stroke-miterlimit="10"/>
<path d="M2734.09 385.089C2694.4 392.675 2313.18 49.7537 1656.91 169.995C1197.53 254.171 539.349 426.726 -247.847 1204.2" stroke="url(#paint5_linear_7294_14839)" stroke-width="2" stroke-miterlimit="10"/>
<path d="M2741.01 383.108C2693.37 392.211 2312.59 55.8416 1663.72 181.428C1208.81 269.475 545.277 418.232 -248.147 1190.87" stroke="url(#paint6_linear_7294_14839)" stroke-width="2" stroke-miterlimit="10"/>
<path d="M2747.93 381.136C2692.35 391.755 2312.01 61.9516 1670.53 192.86C1220.07 284.783 551.205 409.737 -248.439 1177.54" stroke="url(#paint7_linear_7294_14839)" stroke-width="2" stroke-miterlimit="10"/>
<path d="M2754.86 379.16C2691.34 391.295 2311.43 68.071 1677.35 204.288C1231.35 300.101 557.143 401.239 -248.729 1164.22" stroke="url(#paint8_linear_7294_14839)" stroke-width="2" stroke-miterlimit="10"/>
<path d="M2761.78 377.187C2690.32 390.839 2310.84 74.1993 1684.16 215.729C1242.61 315.446 563.075 392.753 -249.016 1150.9" stroke="url(#paint9_linear_7294_14839)" stroke-width="2" stroke-miterlimit="10"/>
<path d="M2768.7 375.215C2689.3 390.393 2310.24 80.3547 1690.97 227.166C1253.86 330.791 568.995 384.264 -249.324 1137.58" stroke="url(#paint10_linear_7294_14839)" stroke-width="2" stroke-miterlimit="10"/>
<path d="M2775.63 373.238C2688.3 389.927 2309.64 86.5185 1697.79 238.593C1265.11 346.139 574.931 375.765 -249.608 1124.24" stroke="url(#paint11_linear_7294_14839)" stroke-width="2" stroke-miterlimit="10"/>
<path d="M2782.55 371.267C2687.28 389.472 2309.01 92.6972 1704.6 250.035C1276.35 361.507 580.864 367.28 -249.902 1110.93" stroke="url(#paint12_linear_7294_14839)" stroke-width="2" stroke-miterlimit="10"/>
<path d="M2789.47 369.294C2686.26 389.016 2308.39 98.8929 1711.41 261.467C1287.59 376.879 586.792 358.786 -250.194 1097.6" stroke="url(#paint13_linear_7294_14839)" stroke-width="2" stroke-miterlimit="10"/>
<path d="M2796.4 367.309C2685.24 388.547 2307.77 105.102 1718.23 272.886C1298.83 392.247 592.724 350.278 -250.49 1084.26" stroke="url(#paint14_linear_7294_14839)" stroke-width="2" stroke-miterlimit="10"/>
<path d="M2803.32 365.337C2684.22 388.092 2307.14 111.33 1725.04 284.327C1310.06 407.655 598.658 341.793 -250.776 1070.94" stroke="url(#paint15_linear_7294_14839)" stroke-width="2" stroke-miterlimit="10"/>
<path d="M2810.24 363.365C2683.2 387.636 2306.51 117.58 1731.85 295.759C1321.29 423.062 604.586 333.299 -251.076 1057.62" stroke="url(#paint16_linear_7294_14839)" stroke-width="2" stroke-miterlimit="10"/>
<path d="M2817.16 361.393C2682.18 387.189 2305.87 123.857 1738.67 307.192C1332.52 438.475 610.523 324.8 -251.367 1044.29" stroke="url(#paint17_linear_7294_14839)" stroke-width="2" stroke-miterlimit="10"/>
<path d="M2824.09 359.416C2681.18 386.724 2305.23 130.143 1745.49 318.628C1343.74 453.919 616.464 316.31 -251.658 1030.96" stroke="url(#paint18_linear_7294_14839)" stroke-width="2" stroke-miterlimit="10"/>
<path d="M2831.01 357.444C2680.15 386.268 2304.59 136.442 1752.3 330.06C1354.96 469.354 622.392 307.816 -251.951 1017.64" stroke="url(#paint19_linear_7294_14839)" stroke-width="2" stroke-miterlimit="10"/>
<path d="M2837.93 355.472C2679.13 385.813 2303.94 142.778 1759.11 341.507C1366.17 484.829 628.315 299.336 -252.256 1004.33" stroke="url(#paint20_linear_7294_14839)" stroke-width="2" stroke-miterlimit="10"/>
<path d="M2844.86 353.495C2678.12 385.352 2303.3 149.122 1765.93 352.934C1377.39 500.3 634.252 290.837 -252.538 990.993" stroke="url(#paint21_linear_7294_14839)" stroke-width="2" stroke-miterlimit="10"/>
<path d="M2851.77 351.515C2677.1 384.888 2302.65 155.484 1772.73 364.358C1388.6 515.776 640.177 282.334 -252.841 977.661" stroke="url(#paint22_linear_7294_14839)" stroke-width="2" stroke-miterlimit="10"/>
<path d="M2858.69 349.542C2676.08 384.441 2301.99 161.882 1779.55 375.799C1399.82 531.282 646.109 273.849 -253.129 964.341" stroke="url(#paint23_linear_7294_14839)" stroke-width="2" stroke-miterlimit="10"/>
<path d="M2865.62 347.566C2675.07 383.981 2301.35 168.285 1786.37 387.227C1411.03 546.789 652.042 265.341 -253.42 951.013" stroke="url(#paint24_linear_7294_14839)" stroke-width="2" stroke-miterlimit="10"/>
<path d="M2872.54 345.594C2674.05 383.521 2300.7 174.723 1793.18 398.659C1422.25 562.327 657.968 256.847 -253.712 937.685" stroke="url(#paint25_linear_7294_14839)" stroke-width="2" stroke-miterlimit="10"/>
<path d="M2879.46 343.622C2673.03 383.065 2300.07 181.187 1799.99 410.1C1433.47 577.878 663.902 248.362 -254.007 924.37" stroke="url(#paint26_linear_7294_14839)" stroke-width="2" stroke-miterlimit="10"/>
<path d="M2886.38 341.649C2672.01 382.609 2299.42 187.67 1806.8 421.532C1444.68 593.443 669.829 239.868 -254.299 911.041" stroke="url(#paint27_linear_7294_14839)" stroke-width="2" stroke-miterlimit="10"/>
<path d="M2893.31 339.673C2671 382.149 2298.8 194.175 1813.62 432.96C1455.91 609.021 675.767 231.369 -254.59 897.713" stroke="url(#paint28_linear_7294_14839)" stroke-width="2" stroke-miterlimit="10"/>
<path d="M2900.23 337.701C2669.98 381.702 2298.17 200.707 1820.44 444.401C1467.13 624.626 681.7 222.884 -254.876 884.394" stroke="url(#paint29_linear_7294_14839)" stroke-width="2" stroke-miterlimit="10"/>
<path d="M2907.15 335.72C2668.96 381.238 2297.54 207.247 1827.24 455.829C1478.34 640.236 687.614 214.385 -255.19 871.066" stroke="url(#paint30_linear_7294_14839)" stroke-width="2" stroke-miterlimit="10"/>
<path d="M2914.08 333.743C2667.94 380.778 2296.94 213.824 1834.06 467.257C1489.59 655.863 693.552 205.887 -255.472 857.733" stroke="url(#paint31_linear_7294_14839)" stroke-width="2" stroke-miterlimit="10"/>
<path d="M2921 331.771C2666.92 380.322 2296.34 220.426 1840.87 478.698C1500.84 671.52 699.484 197.401 -255.768 844.418" stroke="url(#paint32_linear_7294_14839)" stroke-width="2" stroke-miterlimit="10"/>
<path d="M2927.92 329.799C2665.91 379.861 2295.74 227.055 1847.68 490.13C1512.08 687.183 705.412 188.907 -256.064 831.081" stroke="url(#paint33_linear_7294_14839)" stroke-width="2" stroke-miterlimit="10"/>
<path d="M2934.85 327.822C2664.9 379.401 2295.17 233.694 1854.5 501.558C1523.35 702.854 711.35 180.409 -256.354 817.753" stroke="url(#paint34_linear_7294_14839)" stroke-width="2" stroke-miterlimit="10"/>
<path d="M2941.77 325.85C2663.88 378.946 2294.6 240.371 1861.32 513C1534.61 718.57 717.281 171.924 -256.642 804.434" stroke="url(#paint35_linear_7294_14839)" stroke-width="2" stroke-miterlimit="10"/>
<path d="M2948.69 323.878C2662.86 378.499 2294.04 247.067 1868.13 524.432C1545.88 734.286 723.21 163.429 -256.942 791.11" stroke="url(#paint36_linear_7294_14839)" stroke-width="2" stroke-miterlimit="10"/>
<path d="M2955.61 321.906C2661.84 378.043 2293.5 253.78 1874.94 535.864C1557.18 750.023 729.138 154.935 -257.233 777.782" stroke="url(#paint37_linear_7294_14839)" stroke-width="2" stroke-miterlimit="10"/>
<path d="M2962.53 319.921C2660.82 377.574 2292.98 260.511 1881.76 547.292C1568.48 765.765 735.074 146.437 -257.525 764.454" stroke="url(#paint38_linear_7294_14839)" stroke-width="2" stroke-miterlimit="10"/>
<path d="M2969.45 317.949C2659.8 377.119 2292.47 267.273 1888.56 558.729C1579.79 781.538 740.993 137.947 -257.826 751.13" stroke="url(#paint39_linear_7294_14839)" stroke-width="2" stroke-miterlimit="10"/>
<path d="M2976.37 315.976C2658.79 376.658 2291.99 274.056 1895.37 570.161C1591.12 797.324 746.921 129.453 -258.126 737.806" stroke="url(#paint40_linear_7294_14839)" stroke-width="2" stroke-miterlimit="10"/>
<path d="M2983.3 314C2657.78 376.198 2291.53 280.848 1902.2 581.598C1602.48 813.127 752.864 120.963 -258.402 724.482" stroke="url(#paint41_linear_7294_14839)" stroke-width="2" stroke-miterlimit="10"/>
<path d="M2990.22 312.028C2656.76 375.751 2291.08 287.666 1909.01 593.03C1613.84 828.944 758.791 112.469 -258.703 711.159" stroke="url(#paint42_linear_7294_14839)" stroke-width="2" stroke-miterlimit="10"/>
<path d="M2997.15 310.056C2655.74 375.296 2290.66 294.506 1915.82 604.462C1625.21 844.773 764.724 103.962 -258.994 697.831" stroke="url(#paint43_linear_7294_14839)" stroke-width="2" stroke-miterlimit="10"/>
<path d="M3004.07 308.079C2654.73 374.835 2290.26 301.355 1922.64 615.899C1636.63 860.615 770.666 95.4713 -259.28 684.511" stroke="url(#paint44_linear_7294_14839)" stroke-width="2" stroke-miterlimit="10"/>
<path d="M3010.99 306.107C2653.7 374.38 2289.89 308.225 1929.45 627.331C1648.04 876.48 776.593 86.9776 -259.572 671.183" stroke="url(#paint45_linear_7294_14839)" stroke-width="2" stroke-miterlimit="10"/>
<path d="M3017.91 304.135C2652.68 373.924 2289.54 315.118 1936.27 638.764C1659.48 892.344 782.521 78.4835 -259.872 657.859" stroke="url(#paint46_linear_7294_14839)" stroke-width="2" stroke-miterlimit="10"/>
<path d="M3024.83 302.154C2651.67 373.455 2289.21 322.009 1943.08 650.196C1670.94 908.23 788.449 69.9893 -260.164 644.531" stroke="url(#paint47_linear_7294_14839)" stroke-width="2" stroke-miterlimit="10"/>
<path d="M3031.76 300.177C2650.66 372.994 2288.92 328.913 1949.9 661.623C1682.43 924.124 794.384 61.5037 -260.454 631.202" stroke="url(#paint48_linear_7294_14839)" stroke-width="2" stroke-miterlimit="10"/>
<path d="M3038.68 298.205C2649.64 372.548 2288.65 335.835 1956.7 673.06C1693.93 940.022 800.312 53.0097 -260.754 617.879" stroke="url(#paint49_linear_7294_14839)" stroke-width="2" stroke-miterlimit="10"/>
<path d="M3045.6 296.233C2648.62 372.092 2288.4 342.761 1963.51 684.502C1705.46 955.938 806.247 44.5112 -261.047 604.551" stroke="url(#paint50_linear_7294_14839)" stroke-width="2" stroke-miterlimit="10"/>
<path d="M3052.53 294.257C2647.6 371.632 2288.2 349.699 1970.33 695.929C1717.01 971.853 812.175 36.0171 -261.338 591.223" stroke="url(#paint51_linear_7294_14839)" stroke-width="2" stroke-miterlimit="10"/>
<path d="M3059.45 292.284C2646.58 371.176 2288.02 356.636 1977.14 707.361C1728.59 987.781 818.103 27.5226 -261.639 577.899" stroke="url(#paint52_linear_7294_14839)" stroke-width="2" stroke-miterlimit="10"/>
<path d="M3066.37 290.313C2645.56 370.721 2287.87 363.583 1983.96 718.803C1740.2 1003.71 824.032 19.029 -261.924 564.58" stroke="url(#paint53_linear_7294_14839)" stroke-width="2" stroke-miterlimit="10"/>
<path d="M3073.3 288.336C2644.56 370.256 2287.75 370.532 1990.78 730.231C1751.83 1019.64 829.965 10.5436 -262.215 551.251" stroke="url(#paint54_linear_7294_14839)" stroke-width="2" stroke-miterlimit="10"/>
<path d="M3080.22 286.355C2643.54 369.8 2287.66 377.472 1997.59 741.654C1763.48 1035.59 835.902 2.04461 -262.516 537.928" stroke="url(#paint55_linear_7294_14839)" stroke-width="2" stroke-miterlimit="10"/>
<path d="M3087.14 284.383C2642.52 369.344 2287.59 384.416 2004.4 753.095C1775.17 1051.52 841.83 -6.44946 -262.807 524.599" stroke="url(#paint56_linear_7294_14839)" stroke-width="2" stroke-miterlimit="10"/>
<path d="M3094.06 282.411C2641.5 368.888 2287.56 391.369 2011.21 764.527C1786.88 1067.47 847.758 -14.9434 -263.098 511.271" stroke="url(#paint57_linear_7294_14839)" stroke-width="2" stroke-miterlimit="10"/>
<path d="M3100.99 280.434C2640.48 368.428 2287.57 398.298 2018.04 775.964C1798.6 1083.41 853.687 -23.4375 -263.389 497.943" stroke="url(#paint58_linear_7294_14839)" stroke-width="2" stroke-miterlimit="10"/>
<path d="M3107.91 278.462C2639.46 367.973 2287.59 405.24 2024.84 787.401C1810.36 1099.35 859.623 -31.9361 -263.689 484.62" stroke="url(#paint59_linear_7294_14839)" stroke-width="2" stroke-miterlimit="10"/>
<path d="M3114.83 276.49C2638.44 367.517 2288.2 412.531 2031.65 798.833C1822.6 1115.57 865.555 -40.4214 -263.977 471.3" stroke="url(#paint60_linear_7294_14839)" stroke-width="2" stroke-miterlimit="10"/>
<path d="M3121.76 274.513C2637.44 367.061 2287.75 419.081 2038.47 810.27C1833.96 1131.2 871.484 -48.9155 -264.268 457.972" stroke="url(#paint61_linear_7294_14839)" stroke-width="2" stroke-miterlimit="10"/>
<defs>
<linearGradient id="paint0_linear_7294_14839" x1="793.46" y1="1645.74" x2="1702.91" y2="-61.4912" gradientUnits="userSpaceOnUse">
<stop stop-color="#9EAAE3"/>
<stop offset="0.13" stop-color="#95A2D7"/>
<stop offset="0.34" stop-color="#7D8EB9"/>
<stop offset="0.62" stop-color="#576E87"/>
<stop offset="0.96" stop-color="#224144"/>
<stop offset="1" stop-color="#1C3C3C"/>
</linearGradient>
<linearGradient id="paint1_linear_7294_14839" x1="798.807" y1="1634.38" x2="1700.55" y2="-58.3849" gradientUnits="userSpaceOnUse">
<stop stop-color="#9EAAE3"/>
<stop offset="0.13" stop-color="#95A2D7"/>
<stop offset="0.34" stop-color="#7D8FB9"/>
<stop offset="0.42" stop-color="#7487AD"/>
<stop offset="0.89" stop-color="#2D4A52"/>
<stop offset="1" stop-color="#1C3C3C"/>
</linearGradient>
<linearGradient id="paint2_linear_7294_14839" x1="804.111" y1="1622.99" x2="1698.21" y2="-55.4308" gradientUnits="userSpaceOnUse">
<stop stop-color="#9FAAE4"/>
<stop offset="0.13" stop-color="#95A2D8"/>
<stop offset="0.35" stop-color="#7E8EBA"/>
<stop offset="0.42" stop-color="#7587AF"/>
<stop offset="0.88" stop-color="#2E4B54"/>
<stop offset="1" stop-color="#1C3C3C"/>
</linearGradient>
<linearGradient id="paint3_linear_7294_14839" x1="809.415" y1="1611.6" x2="1696.21" y2="-53.1046" gradientUnits="userSpaceOnUse">
<stop stop-color="#9FAAE4"/>
<stop offset="0.13" stop-color="#96A2D8"/>
<stop offset="0.35" stop-color="#7F8EBA"/>
<stop offset="0.42" stop-color="#7788B0"/>
<stop offset="0.88" stop-color="#2F4C55"/>
<stop offset="1" stop-color="#1C3C3C"/>
</linearGradient>
<linearGradient id="paint4_linear_7294_14839" x1="814.721" y1="1600.22" x2="1694.11" y2="-50.5804" gradientUnits="userSpaceOnUse">
<stop stop-color="#A0ABE5"/>
<stop offset="0.13" stop-color="#97A3D9"/>
<stop offset="0.35" stop-color="#808FBB"/>
<stop offset="0.42" stop-color="#7889B1"/>
<stop offset="0.87" stop-color="#304D56"/>
<stop offset="1" stop-color="#1C3C3C"/>
</linearGradient>
<linearGradient id="paint5_linear_7294_14839" x1="820.024" y1="1588.84" x2="1692.09" y2="-48.2173" gradientUnits="userSpaceOnUse">
<stop stop-color="#A0ABE5"/>
<stop offset="0.14" stop-color="#97A3D9"/>
<stop offset="0.36" stop-color="#7F8FBB"/>
<stop offset="0.42" stop-color="#798AB3"/>
<stop offset="0.86" stop-color="#324E58"/>
<stop offset="1" stop-color="#1C3C3C"/>
</linearGradient>
<linearGradient id="paint6_linear_7294_14839" x1="825.327" y1="1577.45" x2="1690.15" y2="-46.0124" gradientUnits="userSpaceOnUse">
<stop stop-color="#A1ABE6"/>
<stop offset="0.14" stop-color="#98A3DA"/>
<stop offset="0.36" stop-color="#808FBC"/>
<stop offset="0.42" stop-color="#7A8AB4"/>
<stop offset="0.86" stop-color="#334F59"/>
<stop offset="1" stop-color="#1C3C3C"/>
</linearGradient>
<linearGradient id="paint7_linear_7294_14839" x1="830.627" y1="1566.07" x2="1688.31" y2="-43.9906" gradientUnits="userSpaceOnUse">
<stop stop-color="#A1ABE6"/>
<stop offset="0.14" stop-color="#98A3DA"/>
<stop offset="0.37" stop-color="#808FBC"/>
<stop offset="0.42" stop-color="#7B8BB5"/>
<stop offset="0.86" stop-color="#334F5A"/>
<stop offset="1" stop-color="#1C3C3C"/>
</linearGradient>
<linearGradient id="paint8_linear_7294_14839" x1="835.932" y1="1554.68" x2="1686.57" y2="-42.1571" gradientUnits="userSpaceOnUse">
<stop stop-color="#A2ABE6"/>
<stop offset="0.14" stop-color="#99A3DA"/>
<stop offset="0.38" stop-color="#818FBC"/>
<stop offset="0.42" stop-color="#7D8CB7"/>
<stop offset="0.85" stop-color="#35515C"/>
<stop offset="1" stop-color="#1C3C3C"/>
</linearGradient>
<linearGradient id="paint9_linear_7294_14839" x1="841.232" y1="1543.3" x2="1684.95" y2="-40.5433" gradientUnits="userSpaceOnUse">
<stop stop-color="#A2ABE7"/>
<stop offset="0.14" stop-color="#99A3DB"/>
<stop offset="0.38" stop-color="#828FBD"/>
<stop offset="0.42" stop-color="#7E8CB8"/>
<stop offset="0.85" stop-color="#36515D"/>
<stop offset="1" stop-color="#1C3C3C"/>
</linearGradient>
<linearGradient id="paint10_linear_7294_14839" x1="846.542" y1="1531.91" x2="1683.46" y2="-39.1699" gradientUnits="userSpaceOnUse">
<stop stop-color="#A3ABE7"/>
<stop offset="0.14" stop-color="#9AA3DB"/>
<stop offset="0.39" stop-color="#828FBD"/>
<stop offset="0.42" stop-color="#7F8DB9"/>
<stop offset="0.84" stop-color="#37525E"/>
<stop offset="1" stop-color="#1C3C3C"/>
</linearGradient>
<linearGradient id="paint11_linear_7294_14839" x1="851.844" y1="1520.53" x2="1684.15" y2="-41.8922" gradientUnits="userSpaceOnUse">
<stop stop-color="#A3ABE8"/>
<stop offset="0.15" stop-color="#9AA3DC"/>
<stop offset="0.4" stop-color="#8290BE"/>
<stop offset="0.42" stop-color="#808EBB"/>
<stop offset="0.84" stop-color="#385360"/>
<stop offset="1" stop-color="#1C3C3C"/>
</linearGradient>
<linearGradient id="paint12_linear_7294_14839" x1="857.145" y1="1509.14" x2="1685.58" y2="-45.9964" gradientUnits="userSpaceOnUse">
<stop stop-color="#A4ACE8"/>
<stop offset="0.15" stop-color="#9AA4DC"/>
<stop offset="0.4" stop-color="#8290BE"/>
<stop offset="0.42" stop-color="#818FBC"/>
<stop offset="0.83" stop-color="#395461"/>
<stop offset="1" stop-color="#1C3C3C"/>
</linearGradient>
<linearGradient id="paint13_linear_7294_14839" x1="862.448" y1="1497.76" x2="1687" y2="-50.1009" gradientUnits="userSpaceOnUse">
<stop stop-color="#A4ACE9"/>
<stop offset="0.15" stop-color="#9BA4DD"/>
<stop offset="0.4" stop-color="#8490BF"/>
<stop offset="0.42" stop-color="#838FBD"/>
<stop offset="0.83" stop-color="#3A5462"/>
<stop offset="1" stop-color="#1C3C3C"/>
</linearGradient>
<linearGradient id="paint14_linear_7294_14839" x1="867.752" y1="1486.37" x2="1688.42" y2="-54.2049" gradientUnits="userSpaceOnUse">
<stop stop-color="#A5ACE9"/>
<stop offset="0.15" stop-color="#9CA4DD"/>
<stop offset="0.42" stop-color="#8490BF"/>
<stop offset="0.82" stop-color="#3C5564"/>
<stop offset="1" stop-color="#1C3C3C"/>
</linearGradient>
<linearGradient id="paint15_linear_7294_14839" x1="873.059" y1="1474.99" x2="1689.85" y2="-58.306" gradientUnits="userSpaceOnUse">
<stop stop-color="#A5ACE9"/>
<stop offset="0.16" stop-color="#9CA4DD"/>
<stop offset="0.42" stop-color="#8591C0"/>
<stop offset="0.82" stop-color="#3D5665"/>
<stop offset="1" stop-color="#1C3C3C"/>
</linearGradient>
<linearGradient id="paint16_linear_7294_14839" x1="878.363" y1="1463.6" x2="1691.28" y2="-62.4106" gradientUnits="userSpaceOnUse">
<stop stop-color="#A6ACEA"/>
<stop offset="0.16" stop-color="#9DA4DE"/>
<stop offset="0.42" stop-color="#8692C1"/>
<stop offset="0.82" stop-color="#3D5766"/>
<stop offset="1" stop-color="#1C3C3C"/>
</linearGradient>
<linearGradient id="paint17_linear_7294_14839" x1="883.666" y1="1452.21" x2="1692.7" y2="-66.515" gradientUnits="userSpaceOnUse">
<stop stop-color="#A6ACEA"/>
<stop offset="0.16" stop-color="#9CA4DE"/>
<stop offset="0.42" stop-color="#8792C3"/>
<stop offset="0.81" stop-color="#3F5868"/>
<stop offset="1" stop-color="#1C3C3C"/>
</linearGradient>
<linearGradient id="paint18_linear_7294_14839" x1="888.967" y1="1440.83" x2="1694.12" y2="-70.6195" gradientUnits="userSpaceOnUse">
<stop stop-color="#A7ACEB"/>
<stop offset="0.16" stop-color="#9EA4DF"/>
<stop offset="0.42" stop-color="#8993C4"/>
<stop offset="0.81" stop-color="#405969"/>
<stop offset="1" stop-color="#1C3C3C"/>
</linearGradient>
<linearGradient id="paint19_linear_7294_14839" x1="894.27" y1="1429.44" x2="1695.55" y2="-74.724" gradientUnits="userSpaceOnUse">
<stop stop-color="#A7ACEB"/>
<stop offset="0.17" stop-color="#9EA4DF"/>
<stop offset="0.42" stop-color="#8A94C5"/>
<stop offset="0.81" stop-color="#41596A"/>
<stop offset="1" stop-color="#1C3C3C"/>
</linearGradient>
<linearGradient id="paint20_linear_7294_14839" x1="899.575" y1="1418.07" x2="1696.98" y2="-78.825" gradientUnits="userSpaceOnUse">
<stop stop-color="#A8ADEC"/>
<stop offset="0.17" stop-color="#9FA5E0"/>
<stop offset="0.42" stop-color="#8B94C7"/>
<stop offset="0.8" stop-color="#425A6C"/>
<stop offset="1" stop-color="#1C3C3C"/>
</linearGradient>
<linearGradient id="paint21_linear_7294_14839" x1="904.879" y1="1406.68" x2="1698.4" y2="-82.9296" gradientUnits="userSpaceOnUse">
<stop stop-color="#A8ADEC"/>
<stop offset="0.17" stop-color="#9FA5E0"/>
<stop offset="0.42" stop-color="#8C95C8"/>
<stop offset="0.8" stop-color="#435B6D"/>
<stop offset="1" stop-color="#1C3C3C"/>
</linearGradient>
<linearGradient id="paint22_linear_7294_14839" x1="910.183" y1="1395.29" x2="1699.82" y2="-87.0336" gradientUnits="userSpaceOnUse">
<stop stop-color="#A9ADEC"/>
<stop offset="0.18" stop-color="#9FA5E0"/>
<stop offset="0.42" stop-color="#8D96C9"/>
<stop offset="0.8" stop-color="#445C6E"/>
<stop offset="1" stop-color="#1C3C3C"/>
</linearGradient>
<linearGradient id="paint23_linear_7294_14839" x1="915.486" y1="1383.9" x2="1701.25" y2="-91.1382" gradientUnits="userSpaceOnUse">
<stop stop-color="#A9ADED"/>
<stop offset="0.18" stop-color="#A0A5E1"/>
<stop offset="0.42" stop-color="#8F97CB"/>
<stop offset="0.79" stop-color="#465D70"/>
<stop offset="1" stop-color="#1C3C3C"/>
</linearGradient>
<linearGradient id="paint24_linear_7294_14839" x1="920.793" y1="1372.52" x2="1702.68" y2="-95.2393" gradientUnits="userSpaceOnUse">
<stop stop-color="#AAADED"/>
<stop offset="0.19" stop-color="#A1A5E1"/>
<stop offset="0.42" stop-color="#9097CC"/>
<stop offset="0.79" stop-color="#475D71"/>
<stop offset="1" stop-color="#1C3C3C"/>
</linearGradient>
<linearGradient id="paint25_linear_7294_14839" x1="926.095" y1="1361.14" x2="1704.1" y2="-99.3435" gradientUnits="userSpaceOnUse">
<stop stop-color="#AAADEE"/>
<stop offset="0.19" stop-color="#A1A5E2"/>
<stop offset="0.42" stop-color="#9198CD"/>
<stop offset="0.79" stop-color="#485E72"/>
<stop offset="1" stop-color="#1C3C3C"/>
</linearGradient>
<linearGradient id="paint26_linear_7294_14839" x1="931.4" y1="1349.75" x2="1705.52" y2="-103.448" gradientUnits="userSpaceOnUse">
<stop stop-color="#ABADEE"/>
<stop offset="0.19" stop-color="#A1A5E2"/>
<stop offset="0.42" stop-color="#9299CF"/>
<stop offset="0.78" stop-color="#495F74"/>
<stop offset="1" stop-color="#1C3C3C"/>
</linearGradient>
<linearGradient id="paint27_linear_7294_14839" x1="936.699" y1="1338.37" x2="1706.95" y2="-107.553" gradientUnits="userSpaceOnUse">
<stop stop-color="#ABAEEF"/>
<stop offset="0.19" stop-color="#A2A6E3"/>
<stop offset="0.42" stop-color="#9399D0"/>
<stop offset="0.78" stop-color="#4A6075"/>
<stop offset="1" stop-color="#1C3C3C"/>
</linearGradient>
<linearGradient id="paint28_linear_7294_14839" x1="942.009" y1="1326.98" x2="1708.38" y2="-111.654" gradientUnits="userSpaceOnUse">
<stop stop-color="#ACAEEF"/>
<stop offset="0.2" stop-color="#A3A6E3"/>
<stop offset="0.42" stop-color="#959AD1"/>
<stop offset="0.78" stop-color="#4B6076"/>
<stop offset="1" stop-color="#1C3C3C"/>
</linearGradient>
<linearGradient id="paint29_linear_7294_14839" x1="947.314" y1="1315.59" x2="1709.8" y2="-115.764" gradientUnits="userSpaceOnUse">
<stop stop-color="#ACAEEF"/>
<stop offset="0.21" stop-color="#A3A6E3"/>
<stop offset="0.42" stop-color="#969BD3"/>
<stop offset="0.77" stop-color="#4C6278"/>
<stop offset="1" stop-color="#1C3C3C"/>
</linearGradient>
<linearGradient id="paint30_linear_7294_14839" x1="952.613" y1="1304.21" x2="1711.23" y2="-119.869" gradientUnits="userSpaceOnUse">
<stop stop-color="#ADAEF0"/>
<stop offset="0.21" stop-color="#A4A6E4"/>
<stop offset="0.42" stop-color="#979CD4"/>
<stop offset="0.77" stop-color="#4D6279"/>
<stop offset="1" stop-color="#1C3C3C"/>
</linearGradient>
<linearGradient id="paint31_linear_7294_14839" x1="957.917" y1="1292.82" x2="1712.65" y2="-123.973" gradientUnits="userSpaceOnUse">
<stop stop-color="#ADAEF0"/>
<stop offset="0.22" stop-color="#A4A6E4"/>
<stop offset="0.42" stop-color="#989CD5"/>
<stop offset="0.77" stop-color="#4E637A"/>
<stop offset="1" stop-color="#1C3C3C"/>
</linearGradient>
<linearGradient id="paint32_linear_7294_14839" x1="963.22" y1="1281.44" x2="1714.07" y2="-128.078" gradientUnits="userSpaceOnUse">
<stop stop-color="#AEAEF1"/>
<stop offset="0.22" stop-color="#A5A6E5"/>
<stop offset="0.42" stop-color="#999DD6"/>
<stop offset="0.77" stop-color="#4F647B"/>
<stop offset="1" stop-color="#1C3C3C"/>
</linearGradient>
<linearGradient id="paint33_linear_7294_14839" x1="968.53" y1="1270.05" x2="1715.5" y2="-132.179" gradientUnits="userSpaceOnUse">
<stop stop-color="#AEAEF1"/>
<stop offset="0.23" stop-color="#A4A6E5"/>
<stop offset="0.42" stop-color="#9A9ED8"/>
<stop offset="0.76" stop-color="#50657D"/>
<stop offset="1" stop-color="#1C3C3C"/>
</linearGradient>
<linearGradient id="paint34_linear_7294_14839" x1="973.831" y1="1258.67" x2="1716.93" y2="-136.283" gradientUnits="userSpaceOnUse">
<stop stop-color="#AFAEF1"/>
<stop offset="0.24" stop-color="#A6A6E5"/>
<stop offset="0.42" stop-color="#9C9FD9"/>
<stop offset="0.76" stop-color="#52667E"/>
<stop offset="1" stop-color="#1C3C3C"/>
</linearGradient>
<linearGradient id="paint35_linear_7294_14839" x1="979.133" y1="1247.28" x2="1718.35" y2="-140.388" gradientUnits="userSpaceOnUse">
<stop stop-color="#AFAFF2"/>
<stop offset="0.24" stop-color="#A6A7E6"/>
<stop offset="0.42" stop-color="#9D9FDA"/>
<stop offset="0.76" stop-color="#53667F"/>
<stop offset="1" stop-color="#1C3C3C"/>
</linearGradient>
<linearGradient id="paint36_linear_7294_14839" x1="984.438" y1="1235.89" x2="1719.78" y2="-144.492" gradientUnits="userSpaceOnUse">
<stop stop-color="#B0AFF2"/>
<stop offset="0.25" stop-color="#A6A7E6"/>
<stop offset="0.42" stop-color="#9EA0DC"/>
<stop offset="0.75" stop-color="#546781"/>
<stop offset="1" stop-color="#1C3C3C"/>
</linearGradient>
<linearGradient id="paint37_linear_7294_14839" x1="989.747" y1="1224.51" x2="1721.21" y2="-148.593" gradientUnits="userSpaceOnUse">
<stop stop-color="#B0AFF3"/>
<stop offset="0.25" stop-color="#A7A7E7"/>
<stop offset="0.42" stop-color="#9FA1DD"/>
<stop offset="0.75" stop-color="#556882"/>
<stop offset="1" stop-color="#1C3C3C"/>
</linearGradient>
<linearGradient id="paint38_linear_7294_14839" x1="995.047" y1="1213.13" x2="1722.63" y2="-152.697" gradientUnits="userSpaceOnUse">
<stop stop-color="#B1AFF3"/>
<stop offset="0.26" stop-color="#A7A7E7"/>
<stop offset="0.42" stop-color="#A0A1DE"/>
<stop offset="0.75" stop-color="#566883"/>
<stop offset="1" stop-color="#1C3C3C"/>
</linearGradient>
<linearGradient id="paint39_linear_7294_14839" x1="1000.35" y1="1201.74" x2="1724.05" y2="-156.802" gradientUnits="userSpaceOnUse">
<stop stop-color="#B1AFF4"/>
<stop offset="0.27" stop-color="#A8A7E8"/>
<stop offset="0.42" stop-color="#A2A2E0"/>
<stop offset="0.74" stop-color="#586985"/>
<stop offset="1" stop-color="#1C3C3C"/>
</linearGradient>
<linearGradient id="paint40_linear_7294_14839" x1="1005.65" y1="1190.35" x2="1725.48" y2="-160.907" gradientUnits="userSpaceOnUse">
<stop stop-color="#B2AFF4"/>
<stop offset="0.28" stop-color="#A9A7E8"/>
<stop offset="0.42" stop-color="#A3A3E1"/>
<stop offset="0.74" stop-color="#596A86"/>
<stop offset="1" stop-color="#1C3C3C"/>
</linearGradient>
<linearGradient id="paint41_linear_7294_14839" x1="1010.96" y1="1178.97" x2="1726.91" y2="-165.008" gradientUnits="userSpaceOnUse">
<stop stop-color="#B2AFF4"/>
<stop offset="0.29" stop-color="#A9A8E8"/>
<stop offset="0.42" stop-color="#A4A4E2"/>
<stop offset="0.74" stop-color="#596B87"/>
<stop offset="1" stop-color="#1C3C3C"/>
</linearGradient>
<linearGradient id="paint42_linear_7294_14839" x1="1016.26" y1="1167.59" x2="1728.33" y2="-169.112" gradientUnits="userSpaceOnUse">
<stop stop-color="#B3B0F5"/>
<stop offset="0.31" stop-color="#A9A7E9"/>
<stop offset="0.42" stop-color="#A5A4E4"/>
<stop offset="0.74" stop-color="#5B6C89"/>
<stop offset="1" stop-color="#1C3C3C"/>
</linearGradient>
<linearGradient id="paint43_linear_7294_14839" x1="1021.57" y1="1156.2" x2="1729.75" y2="-173.216" gradientUnits="userSpaceOnUse">
<stop stop-color="#B3B0F5"/>
<stop offset="0.32" stop-color="#A9A8E9"/>
<stop offset="0.42" stop-color="#A6A5E5"/>
<stop offset="0.74" stop-color="#5C6C8A"/>
<stop offset="1" stop-color="#1C3C3C"/>
</linearGradient>
<linearGradient id="paint44_linear_7294_14839" x1="1026.87" y1="1144.81" x2="1731.18" y2="-177.321" gradientUnits="userSpaceOnUse">
<stop stop-color="#B4B0F6"/>
<stop offset="0.32" stop-color="#ABA8EA"/>
<stop offset="0.42" stop-color="#A8A6E6"/>
<stop offset="0.73" stop-color="#5D6D8B"/>
<stop offset="1" stop-color="#1C3C3C"/>
</linearGradient>
<linearGradient id="paint45_linear_7294_14839" x1="1032.18" y1="1133.43" x2="1732.61" y2="-181.422" gradientUnits="userSpaceOnUse">
<stop stop-color="#B4B0F6"/>
<stop offset="0.36" stop-color="#ABA7EA"/>
<stop offset="0.42" stop-color="#A9A6E8"/>
<stop offset="0.73" stop-color="#5E6E8D"/>
<stop offset="1" stop-color="#1C3C3C"/>
</linearGradient>
<linearGradient id="paint46_linear_7294_14839" x1="1037.48" y1="1122.04" x2="1734.03" y2="-185.526" gradientUnits="userSpaceOnUse">
<stop stop-color="#B5B0F7"/>
<stop offset="0.36" stop-color="#ACA8EB"/>
<stop offset="0.42" stop-color="#AAA7E9"/>
<stop offset="0.73" stop-color="#5F6F8E"/>
<stop offset="1" stop-color="#1C3C3C"/>
</linearGradient>
<linearGradient id="paint47_linear_7294_14839" x1="1042.78" y1="1110.66" x2="1735.45" y2="-189.631" gradientUnits="userSpaceOnUse">
<stop stop-color="#B5B0F7"/>
<stop offset="0.38" stop-color="#ACA9EB"/>
<stop offset="0.42" stop-color="#ABA8EA"/>
<stop offset="0.73" stop-color="#606F8F"/>
<stop offset="1" stop-color="#1C3C3C"/>
</linearGradient>
<linearGradient id="paint48_linear_7294_14839" x1="1048.1" y1="1099.27" x2="1736.88" y2="-193.732" gradientUnits="userSpaceOnUse">
<stop stop-color="#B6B0F7"/>
<stop offset="0.42" stop-color="#ACA9EC"/>
<stop offset="0.72" stop-color="#627191"/>
<stop offset="1" stop-color="#1C3C3C"/>
</linearGradient>
<linearGradient id="paint49_linear_7294_14839" x1="1053.4" y1="1087.88" x2="1738.31" y2="-197.837" gradientUnits="userSpaceOnUse">
<stop stop-color="#B6B0F8"/>
<stop offset="0.42" stop-color="#AEA9ED"/>
<stop offset="0.72" stop-color="#637192"/>
<stop offset="1" stop-color="#1C3C3C"/>
</linearGradient>
<linearGradient id="paint50_linear_7294_14839" x1="1058.7" y1="1076.5" x2="1739.73" y2="-201.941" gradientUnits="userSpaceOnUse">
<stop stop-color="#B7B1F8"/>
<stop offset="0.42" stop-color="#AFAAEE"/>
<stop offset="0.72" stop-color="#647293"/>
<stop offset="1" stop-color="#1C3C3C"/>
</linearGradient>
<linearGradient id="paint51_linear_7294_14839" x1="1064" y1="1065.11" x2="1741.15" y2="-206.045" gradientUnits="userSpaceOnUse">
<stop stop-color="#B7B1F9"/>
<stop offset="0.42" stop-color="#B0ABF0"/>
<stop offset="0.72" stop-color="#657395"/>
<stop offset="1" stop-color="#1C3C3C"/>
</linearGradient>
<linearGradient id="paint52_linear_7294_14839" x1="1069.31" y1="1053.73" x2="1742.58" y2="-210.147" gradientUnits="userSpaceOnUse">
<stop stop-color="#B8B1F9"/>
<stop offset="0.42" stop-color="#B1ACF1"/>
<stop offset="0.72" stop-color="#667496"/>
<stop offset="1" stop-color="#1C3C3C"/>
</linearGradient>
<linearGradient id="paint53_linear_7294_14839" x1="1074.61" y1="1042.34" x2="1744.01" y2="-214.251" gradientUnits="userSpaceOnUse">
<stop stop-color="#B8B1FA"/>
<stop offset="0.42" stop-color="#B2ACF2"/>
<stop offset="0.71" stop-color="#677497"/>
<stop offset="1" stop-color="#1C3C3C"/>
</linearGradient>
<linearGradient id="paint54_linear_7294_14839" x1="1079.92" y1="1030.95" x2="1745.43" y2="-218.355" gradientUnits="userSpaceOnUse">
<stop stop-color="#B9B1FA"/>
<stop offset="0.42" stop-color="#B4ADF4"/>
<stop offset="0.71" stop-color="#697599"/>
<stop offset="1" stop-color="#1C3C3C"/>
</linearGradient>
<linearGradient id="paint55_linear_7294_14839" x1="1085.22" y1="1019.57" x2="1746.85" y2="-222.46" gradientUnits="userSpaceOnUse">
<stop stop-color="#B9B1FA"/>
<stop offset="0.42" stop-color="#B5AEF5"/>
<stop offset="0.71" stop-color="#6A769A"/>
<stop offset="1" stop-color="#1C3C3C"/>
</linearGradient>
<linearGradient id="paint56_linear_7294_14839" x1="1090.53" y1="1008.18" x2="1748.28" y2="-226.561" gradientUnits="userSpaceOnUse">
<stop stop-color="#BAB1FB"/>
<stop offset="0.42" stop-color="#B6AEF6"/>
<stop offset="0.71" stop-color="#6A769A"/>
<stop offset="1" stop-color="#1C3C3C"/>
</linearGradient>
<linearGradient id="paint57_linear_7294_14839" x1="1095.84" y1="996.794" x2="1749.71" y2="-230.665" gradientUnits="userSpaceOnUse">
<stop stop-color="#BAB1FB"/>
<stop offset="0.42" stop-color="#B7AFF8"/>
<stop offset="0.71" stop-color="#6B779C"/>
<stop offset="1" stop-color="#1C3C3C"/>
</linearGradient>
<linearGradient id="paint58_linear_7294_14839" x1="1101.14" y1="985.406" x2="1751.13" y2="-234.77" gradientUnits="userSpaceOnUse">
<stop stop-color="#BBB2FC"/>
<stop offset="0.42" stop-color="#B8B0F9"/>
<stop offset="0.71" stop-color="#6C779D"/>
<stop offset="1" stop-color="#1C3C3C"/>
</linearGradient>
<linearGradient id="paint59_linear_7294_14839" x1="1106.44" y1="974.024" x2="1752.56" y2="-238.874" gradientUnits="userSpaceOnUse">
<stop stop-color="#BBB2FC"/>
<stop offset="0.42" stop-color="#BAB1FA"/>
<stop offset="0.71" stop-color="#6D789E"/>
<stop offset="1" stop-color="#1C3C3C"/>
</linearGradient>
<linearGradient id="paint60_linear_7294_14839" x1="1111.75" y1="962.64" x2="1753.98" y2="-242.975" gradientUnits="userSpaceOnUse">
<stop stop-color="#BCB2FD"/>
<stop offset="0.42" stop-color="#BBB1FC"/>
<stop offset="0.7" stop-color="#6F79A0"/>
<stop offset="1" stop-color="#1C3C3C"/>
</linearGradient>
<linearGradient id="paint61_linear_7294_14839" x1="1117.05" y1="951.252" x2="1755.41" y2="-247.08" gradientUnits="userSpaceOnUse">
<stop offset="0.42" stop-color="#BCB2FD"/>
<stop offset="0.7" stop-color="#707AA1"/>
<stop offset="1" stop-color="#1C3C3C"/>
</linearGradient>
</defs>
</svg>
