<svg width="155" height="62" viewBox="0 0 155 62" fill="none" xmlns="http://www.w3.org/2000/svg">
<g clip-path="url(#clip0_6718_358)">
<path d="M38.5301 30.9757C38.5301 40.9498 30.4582 49.0217 20.4841 49.0217C10.51 49.0217 2.43811 40.9498 2.43811 30.9757C2.43811 21.0016 10.51 12.9297 20.4841 12.9297C30.4338 12.9297 38.5301 21.0016 38.5301 30.9757ZM53.1133 38.438L58.4783 25.2693H55.0398L51.6988 33.9996L48.2603 25.2693H44.6511L50.1625 38.438H53.1133ZM71.4031 31.8048C71.4031 30.9513 71.2812 30.1222 71.013 29.293C70.7447 28.4639 70.3545 27.7323 69.818 27.0982C69.2815 26.4642 68.6231 25.9277 67.8427 25.5375C67.0623 25.1473 66.1357 24.9522 65.087 24.9522C64.0384 24.9522 63.1117 25.1473 62.307 25.5375C61.5266 25.9277 60.8682 26.4398 60.3317 27.0982C59.8195 27.7567 59.4294 28.4883 59.1611 29.293C58.8929 30.1222 58.7709 30.9513 58.7709 31.8048C58.7709 32.6584 58.8929 33.5119 59.1611 34.341C59.4294 35.1702 59.8195 35.9018 60.3317 36.5602C60.8438 37.2186 61.5022 37.7551 62.307 38.1453C63.0873 38.5355 64.014 38.755 65.087 38.755C66.1357 38.755 67.0623 38.5599 67.8671 38.1453C68.6475 37.7551 69.3059 37.2186 69.8424 36.5602C70.3545 35.9018 70.7447 35.1702 71.013 34.341C71.2812 33.5119 71.4031 32.6584 71.4031 31.8048ZM68.0622 31.7805C68.0622 32.3413 67.989 32.8778 67.8671 33.3656C67.7452 33.8533 67.5501 34.2679 67.2818 34.6337C67.038 34.9995 66.7209 35.2921 66.3551 35.4872C65.9893 35.6823 65.5748 35.8042 65.0626 35.8042C64.5505 35.8042 64.136 35.7067 63.7702 35.4872C63.4044 35.2677 63.0873 34.9995 62.8435 34.6337C62.5996 34.2679 62.4045 33.8533 62.2826 33.3656C62.1607 32.8778 62.0875 32.3657 62.0875 31.7805C62.0875 31.244 62.1607 30.7074 62.2826 30.2197C62.4045 29.732 62.5996 29.293 62.8679 28.9516C63.1117 28.5858 63.4288 28.3176 63.7946 28.0981C64.1604 27.8786 64.5993 27.7811 65.087 27.7811C65.5748 27.7811 66.0137 27.8786 66.3795 28.0981C66.7453 28.3176 67.0623 28.5858 67.3062 28.9516C67.5501 29.3174 67.7452 29.732 67.8915 30.2197C68.0134 30.7318 68.0622 31.244 68.0622 31.7805ZM84.962 38.438V20.2213H81.5723V25.318C80.7676 25.0742 80.036 24.9278 79.3288 24.9278C78.2801 24.9278 77.3534 25.1229 76.5731 25.5131C75.7927 25.9033 75.1343 26.4154 74.6222 27.0739C74.11 27.7323 73.7199 28.4639 73.476 29.2686C73.2321 30.0978 73.0858 30.9269 73.0858 31.7805C73.0858 32.6828 73.2077 33.5607 73.4516 34.3898C73.6955 35.219 74.0613 35.9749 74.5246 36.609C74.988 37.243 75.5732 37.7551 76.2561 38.1453C76.9389 38.5355 77.7436 38.7306 78.6459 38.7306C79.3288 38.7306 79.9384 38.6087 80.4505 38.3404C80.9626 38.0722 81.3772 37.7795 81.6699 37.4137L81.8162 38.4136H84.962V38.438ZM81.5723 34.7068C81.4016 35.0239 81.0846 35.2921 80.6456 35.5116C80.2067 35.7311 79.7921 35.853 79.3775 35.853C78.8654 35.853 78.4265 35.7311 78.0607 35.5116C77.6949 35.2921 77.3778 34.9751 77.134 34.6093C76.8901 34.2435 76.7194 33.8045 76.5975 33.2924C76.4755 32.7803 76.4268 32.2682 76.4268 31.7073C76.4268 31.2196 76.4999 30.7318 76.6219 30.2685C76.7682 29.8051 76.9633 29.3906 77.2315 29.0004C77.4998 28.6346 77.8412 28.3176 78.2557 28.0981C78.6703 27.8786 79.1824 27.7567 79.7433 27.7567C80.3042 27.7567 80.9139 27.8786 81.5723 28.1469V34.7068ZM97.8625 38.438V29.9759C97.8625 29.0735 97.7406 28.3176 97.4967 27.7079C97.2528 27.0739 96.9114 26.5617 96.4725 26.1472C96.0335 25.7326 95.5214 25.44 94.9117 25.2449C94.3021 25.0498 93.6436 24.9522 92.912 24.9522C92.3024 24.9522 91.7171 25.001 91.1806 25.1229C90.6441 25.2449 90.1564 25.3912 89.7418 25.5619C89.3028 25.7326 88.9614 25.9033 88.6444 26.0984C88.3518 26.2935 88.1323 26.4398 87.986 26.5617L89.1077 28.9272C89.2297 28.8297 89.4004 28.6834 89.6199 28.5614C89.8393 28.4151 90.0832 28.2932 90.3515 28.1469C90.6197 28.0005 90.9367 27.903 91.2781 27.8055C91.6195 27.7079 91.9853 27.6591 92.3755 27.6591C93.034 27.6591 93.5461 27.8055 93.9363 28.1225C94.3021 28.4395 94.4972 28.9516 94.4972 29.6832V29.8783C94.1557 29.9027 93.7168 29.9515 93.2047 30.0002C92.6926 30.049 92.2048 30.1222 91.7659 30.1953C91.1562 30.2929 90.5465 30.4636 89.9857 30.6831C89.4248 30.9025 88.9126 31.1952 88.4737 31.5366C88.0347 31.878 87.6933 32.317 87.4251 32.8047C87.1568 33.3168 87.0349 33.8777 87.0349 34.5361C87.0349 35.1946 87.1568 35.7798 87.4007 36.292C87.6445 36.8041 87.9616 37.243 88.3761 37.6088C88.7663 37.9746 89.2297 38.2429 89.7662 38.438C90.2783 38.6331 90.8392 38.7306 91.4001 38.7306C92.0829 38.7306 92.6926 38.6087 93.2534 38.3892C93.8143 38.1697 94.2777 37.8527 94.6435 37.4381L94.7898 38.4136H97.8625V38.438ZM94.4972 34.9507C94.2045 35.219 93.8387 35.4628 93.4485 35.6335C93.034 35.8042 92.6194 35.9018 92.1804 35.9018C91.5952 35.9018 91.1318 35.7798 90.8148 35.5116C90.4978 35.2433 90.3271 34.9019 90.3271 34.463C90.3271 34.0484 90.4734 33.6582 90.7416 33.2924C91.0343 32.9266 91.5464 32.6828 92.278 32.5364C92.6194 32.4633 92.9852 32.4145 93.3754 32.3657C93.7656 32.317 94.1314 32.2926 94.4972 32.2682V34.9507ZM108.69 20.4163C108.593 20.3676 108.276 20.2456 107.739 20.0993C107.203 19.953 106.52 19.8555 105.715 19.8555C105.105 19.8555 104.52 19.953 103.984 20.1237C103.447 20.2944 102.984 20.5627 102.593 20.9528C102.203 21.3186 101.886 21.8064 101.667 22.3917C101.447 22.9769 101.35 23.7085 101.35 24.5621V25.2693H99.6427V28.0005H101.399V38.438H104.764V28.0005H107.568V25.2693H104.739V24.6596C104.739 24.0255 104.91 23.5622 105.227 23.2696C105.544 22.9769 105.934 22.855 106.422 22.855C106.959 22.855 107.373 22.9038 107.69 23.0013C108.007 23.0989 108.227 23.172 108.324 23.2452L108.69 20.4163ZM120.883 31.8048C120.883 30.9513 120.761 30.1222 120.493 29.293C120.225 28.4639 119.835 27.7323 119.298 27.0982C118.762 26.4642 118.103 25.9277 117.323 25.5375C116.543 25.1473 115.616 24.9522 114.567 24.9522C113.519 24.9522 112.592 25.1473 111.787 25.5375C111.007 25.9277 110.348 26.4398 109.812 27.0982C109.3 27.7567 108.91 28.4883 108.641 29.293C108.373 30.1222 108.251 30.9513 108.251 31.8048C108.251 32.6584 108.373 33.5119 108.641 34.341C108.91 35.1702 109.3 35.9018 109.812 36.5602C110.324 37.2186 110.982 37.7551 111.787 38.1453C112.568 38.5355 113.494 38.755 114.567 38.755C115.616 38.755 116.543 38.5599 117.347 38.1453C118.128 37.7551 118.786 37.2186 119.323 36.5602C119.835 35.9018 120.225 35.1702 120.493 34.341C120.761 33.5119 120.883 32.6584 120.883 31.8048ZM117.542 31.7805C117.542 32.3413 117.469 32.8778 117.347 33.3656C117.225 33.8533 117.03 34.2679 116.762 34.6337C116.518 34.9995 116.201 35.2921 115.835 35.4872C115.47 35.6823 115.055 35.8042 114.543 35.8042C114.055 35.8042 113.616 35.7067 113.25 35.4872C112.885 35.2677 112.568 34.9995 112.324 34.6337C112.08 34.2679 111.885 33.8533 111.763 33.3656C111.641 32.8778 111.568 32.3657 111.568 31.7805C111.568 31.244 111.641 30.7074 111.763 30.2197C111.885 29.732 112.08 29.293 112.348 28.9516C112.592 28.5858 112.909 28.3176 113.275 28.0981C113.641 27.8786 114.08 27.7811 114.567 27.7811C115.055 27.7811 115.494 27.8786 115.86 28.0981C116.226 28.3176 116.543 28.5858 116.786 28.9516C117.03 29.3174 117.225 29.732 117.372 30.2197C117.494 30.7318 117.542 31.244 117.542 31.7805ZM134.784 38.438V30.6587C134.784 29.6344 134.662 28.7565 134.442 28.0249C134.223 27.2933 133.881 26.7081 133.467 26.2447C133.052 25.7814 132.54 25.4643 131.955 25.2449C131.37 25.0254 130.736 24.9278 130.053 24.9278C129.37 24.9278 128.711 25.0498 128.053 25.2936C127.395 25.5375 126.785 25.8789 126.273 26.2935L126.102 25.2449H123.005V38.4136H126.395V29.0736C126.712 28.7565 127.102 28.4395 127.565 28.1713C128.029 27.903 128.492 27.7567 129.028 27.7567C129.784 27.7567 130.345 28.0249 130.784 28.5858C131.199 29.1223 131.418 29.9027 131.418 30.9025V38.4136H134.784V38.438ZM148.757 32.7071V32.0975C148.757 30.8294 148.611 29.7564 148.318 28.8541C148.026 27.9518 147.611 27.1958 147.099 26.6349C146.587 26.074 145.977 25.6351 145.245 25.3668C144.538 25.0986 143.758 24.9522 142.929 24.9522C142.1 24.9522 141.295 25.0986 140.563 25.4156C139.832 25.7326 139.173 26.1716 138.612 26.7568C138.051 27.3421 137.612 28.0493 137.295 28.9028C136.978 29.7564 136.808 30.7318 136.808 31.8536C136.808 33.0486 136.978 34.0484 137.32 34.9019C137.661 35.7555 138.125 36.4627 138.71 37.0479C139.295 37.6332 139.978 38.0478 140.734 38.316C141.514 38.5843 142.319 38.7306 143.173 38.7306C143.855 38.7306 144.465 38.6818 145.026 38.5843C145.587 38.4867 146.075 38.3648 146.514 38.2185C146.928 38.0722 147.294 37.9258 147.562 37.7795C147.855 37.6332 148.05 37.5113 148.172 37.4137L147.27 34.6581C147.148 34.7556 147.001 34.8775 146.782 35.0239C146.562 35.1458 146.294 35.2677 145.977 35.414C145.66 35.536 145.319 35.6579 144.904 35.7311C144.514 35.8042 144.075 35.853 143.612 35.853C142.636 35.853 141.831 35.6091 141.197 35.1214C140.563 34.6337 140.222 33.8289 140.149 32.7071H148.757ZM140.295 30.2685C140.393 29.3906 140.71 28.7321 141.222 28.2932C141.758 27.8542 142.319 27.6348 142.904 27.6348C143.173 27.6348 143.441 27.6835 143.709 27.7811C143.977 27.8786 144.221 28.0249 144.441 28.2444C144.66 28.4639 144.855 28.7321 145.026 29.0736C145.172 29.415 145.27 29.8051 145.319 30.2685H140.295Z" fill="#E60000"/>
<path d="M20.6304 41.0223C15.68 41.0467 10.51 36.8034 10.4857 30.024C10.4613 25.5369 12.8999 21.1961 15.997 18.6355C19.0209 16.1237 23.1666 14.5385 26.9222 14.5142C27.4099 14.5142 27.922 14.5629 28.2146 14.6605C24.9225 15.3433 22.3131 18.3916 22.3375 21.8545C22.3375 21.9764 22.3375 22.0984 22.3619 22.1471C27.8488 23.4884 30.3607 26.805 30.3607 31.3896C30.3607 35.9743 26.7515 40.9979 20.6304 41.0223Z" fill="white"/>
</g>
<defs>
<clipPath id="clip0_6718_358">
<rect width="155" height="62" fill="white"/>
</clipPath>
</defs>
</svg>
