<svg width="97" height="56" viewBox="0 0 97 56" fill="none" xmlns="http://www.w3.org/2000/svg">
<g clip-path="url(#clip0_4635_2211)">
<g clip-path="url(#clip1_4635_2211)">
<path d="M18.2238 17.0332H13.5652C13.5652 20.8562 11.8103 24.345 8.76027 26.643L6.92188 28.0218L14.0665 37.7569H19.9369L13.3563 28.7948C16.469 25.7029 18.2238 21.5247 18.2238 17.0332Z" fill="white"/>
<path d="M6.34319 17.0332H1.58008V37.7569H6.34319V17.0332Z" fill="white"/>
<path d="M25.8138 17.0332H21.3223V37.7569H25.8138V17.0332Z" fill="white"/>
<path d="M65.2101 23.0283C63.4971 23.0283 61.8676 23.5506 60.7813 25.0338V23.4252H56.5195V37.7564H60.8439V30.2357C60.8439 28.063 62.3063 26.9976 64.0611 26.9976C65.9413 26.9976 67.0276 28.1257 67.0276 30.2148V37.7773H71.3103V28.648C71.3103 25.3054 68.6571 23.0283 65.2101 23.0283Z" fill="white"/>
<path d="M39.3906 23.4252V24.3444C38.179 23.5088 36.7166 23.0283 35.1289 23.0283C30.9507 23.0283 27.5664 26.4126 27.5664 30.5908C27.5664 34.769 30.9507 38.1533 35.1289 38.1533C36.7166 38.1533 38.179 37.6728 39.3906 36.8372V37.7564H43.6733V23.4252H39.3906ZM35.484 34.2676C33.3323 34.2676 31.5983 32.6172 31.5983 30.5908C31.5983 28.5644 33.3323 26.914 35.484 26.914C37.6358 26.914 39.3697 28.5644 39.3697 30.5908C39.3697 32.6172 37.6358 34.2676 35.484 34.2676Z" fill="white"/>
<path d="M50.3187 25.2841V23.4248H45.9316V37.7559H50.3396V31.0709C50.3396 28.8146 52.7838 27.603 54.476 27.603C54.4969 27.603 54.5178 27.603 54.5178 27.603V23.4248C52.7838 23.4248 51.1752 24.1769 50.3187 25.2841Z" fill="white"/>
<path d="M84.6406 23.4252V24.3444C83.429 23.5088 81.9666 23.0283 80.3789 23.0283C76.2007 23.0283 72.8164 26.4126 72.8164 30.5908C72.8164 34.769 76.2007 38.1533 80.3789 38.1533C81.9666 38.1533 83.429 37.6728 84.6406 36.8372V37.7564H88.9233V23.4252H84.6406ZM80.734 34.2676C78.5823 34.2676 76.8483 32.6172 76.8483 30.5908C76.8483 28.5644 78.5823 26.914 80.734 26.914C82.8858 26.914 84.6197 28.5644 84.6197 30.5908C84.6406 32.6172 82.8858 34.2676 80.734 34.2676Z" fill="white"/>
<path d="M92.2417 23.843C92.2417 23.6341 92.0955 23.5088 91.8657 23.5088H91.4688V24.5951H91.6568V24.1982H91.8657L92.0328 24.5951H92.2417L92.0537 24.1564C92.179 24.0937 92.2417 23.9893 92.2417 23.843ZM91.8657 24.0102H91.6568V23.6759H91.8657C91.991 23.6759 92.0537 23.7386 92.0537 23.843C92.0537 23.9475 92.0119 24.0102 91.8657 24.0102Z" fill="white"/>
<path d="M91.8069 23.0493C91.2428 23.0493 90.7832 23.5089 90.7832 24.073C90.8041 24.637 91.2428 25.0966 91.8069 25.0966C92.3709 25.0966 92.8305 24.637 92.8305 24.073C92.8305 23.5089 92.3709 23.0493 91.8069 23.0493ZM91.8069 24.9086C91.3473 24.9086 90.9921 24.5326 90.9921 24.073C90.9921 23.6134 91.3681 23.2373 91.8069 23.2373C92.2665 23.2373 92.6216 23.6134 92.6216 24.073C92.6216 24.5326 92.2456 24.9086 91.8069 24.9086Z" fill="white"/>
<path d="M93.4977 32.6802C92.0144 32.6802 90.8027 33.8918 90.8027 35.3751C90.8027 36.8583 92.0144 38.07 93.4977 38.07C94.9809 38.07 96.1926 36.8583 96.1926 35.3751C96.1926 33.871 94.9809 32.6802 93.4977 32.6802Z" fill="white"/>
</g>
</g>
<defs>
<clipPath id="clip0_4635_2211">
<rect width="96.6452" height="56" fill="white"/>
</clipPath>
<clipPath id="clip1_4635_2211">
<rect width="94.6147" height="21.1207" fill="white" transform="translate(1.58008 17.0332)"/>
</clipPath>
</defs>
</svg>
